<?xml version="1.0" standalone="no"?>
<!DOCTYPE svg PUBLIC "-//W3C//DTD SVG 20010904//EN"
 "http://www.w3.org/TR/2001/REC-SVG-20010904/DTD/svg10.dtd">
<svg version="1.0" xmlns="http://www.w3.org/2000/svg"
 width="512.000000pt" height="512.000000pt" viewBox="0 0 512.000000 512.000000"
 preserveAspectRatio="xMidYMid meet">
<metadata>
Created by potrace 1.14, written by Peter Selinger 2001-2017
</metadata>
<g transform="translate(0.000000,512.000000) scale(0.100000,-0.100000)"
fill="#000000" stroke="none">
<path d="M2956 5089 c-9 -16 -17 -31 -16 -34 0 -3 -3 -4 -7 -2 -5 1 -7 6 -5
10 1 5 -2 6 -7 3 -5 -3 -8 -14 -6 -24 2 -9 4 -19 4 -21 1 -2 10 4 21 14 17 15
23 16 33 5 6 -7 7 -10 2 -7 -16 9 -38 -9 -42 -33 -2 -15 1 -19 9 -14 8 4 10 3
5 -2 -5 -5 -13 -10 -18 -10 -5 -1 -13 -2 -18 -3 -5 0 -8 -9 -6 -18 3 -23 -4
-35 -16 -27 -5 3 -6 11 -2 17 8 12 9 17 12 38 0 5 5 8 10 5 5 -3 11 0 14 7 3
8 -5 19 -16 27 -12 7 -19 9 -14 5 4 -5 -1 -17 -10 -28 -10 -12 -12 -17 -4 -12
9 5 12 3 9 -6 -3 -8 -11 -13 -18 -11 -11 3 -11 0 0 -12 10 -13 10 -16 -1 -16
-8 0 -1 -8 14 -19 23 -15 25 -19 12 -25 -9 -3 -14 -2 -11 2 3 5 -1 9 -9 9 -20
0 -19 -3 7 -27 12 -11 18 -20 14 -20 -5 0 -3 -7 4 -15 7 -8 11 -15 9 -16 -2 0
-12 -2 -22 -4 -11 -2 -22 -7 -25 -11 -4 -4 1 -4 11 -1 9 4 17 2 17 -4 0 -6 5
-7 12 -3 7 5 8 3 2 -7 -4 -8 -10 -21 -12 -29 -8 -40 -10 -45 -20 -43 -7 2 -9
-4 -5 -14 4 -11 8 -12 11 -5 3 9 7 8 18 -2 19 -19 18 -27 -3 -19 -10 4 -14 2
-10 -4 4 -6 1 -14 -5 -17 -7 -3 -2 -3 12 1 22 5 23 4 11 -11 -11 -13 -12 -19
-2 -29 10 -9 12 -9 9 2 -2 7 3 16 10 18 14 6 16 -13 2 -22 -7 -4 -7 -13 0 -26
6 -11 16 -16 22 -13 7 4 8 3 4 -4 -4 -7 -1 -12 6 -12 10 0 9 -3 -2 -9 -8 -6
-17 -8 -21 -5 -4 2 -12 -3 -19 -11 -10 -12 -8 -13 9 -10 12 2 26 7 31 10 6 4
9 1 8 -7 -2 -7 3 -12 10 -10 10 2 10 -3 -2 -20 -9 -12 -16 -27 -16 -33 0 -5 5
-2 11 7 10 17 39 14 39 -4 0 -7 -5 -6 -13 1 -10 8 -14 7 -14 -4 0 -8 4 -12 9
-9 4 3 8 0 8 -6 0 -6 4 -9 9 -6 5 4 12 0 15 -6 3 -7 3 -2 0 12 -5 23 -4 24 10
7 8 -10 17 -18 20 -17 4 1 12 0 19 -3 9 -3 9 -8 -2 -20 -15 -19 -1 -23 16 -6
14 14 13 -7 -2 -31 -8 -13 -7 -13 8 -1 9 7 15 17 12 20 -2 4 9 8 25 8 17 0 27
-5 23 -10 -4 -6 -1 -7 6 -3 9 6 8 13 -5 27 -14 15 -15 22 -5 32 10 9 11 8 5
-8 -7 -17 -5 -18 8 -8 8 7 18 10 21 6 4 -3 19 4 33 18 14 13 26 22 27 19 1 -2
11 2 23 10 13 10 20 25 19 43 -1 15 2 27 8 27 5 0 3 8 -4 17 -8 10 -9 14 -2
10 6 -4 14 -3 18 3 3 6 -1 13 -10 16 -13 5 -14 9 -4 15 18 11 28 2 24 -20 -5
-25 24 -21 37 5 9 18 9 18 -5 1 -9 -11 -18 -14 -21 -8 -4 5 -2 12 4 16 5 3 10
12 10 18 0 7 -4 6 -10 -3 -7 -11 -10 -5 -10 23 0 28 -6 44 -22 58 -13 11 -18
19 -13 18 22 -3 27 2 16 15 -9 10 -8 15 2 19 9 3 13 -2 12 -16 -3 -36 5 -49
21 -32 17 16 18 26 3 23 -6 -2 -14 3 -17 11 -3 10 0 11 9 5 11 -6 12 -5 2 7
-22 27 -5 98 20 82 6 -3 7 -1 3 6 -6 9 -11 9 -22 0 -13 -11 -18 -6 -15 14 1 5
-3 6 -9 2 -5 -3 -10 0 -10 9 0 8 -5 16 -12 18 -8 3 -6 7 5 11 10 4 16 2 14 -5
-1 -7 7 -13 18 -14 16 -2 17 -2 2 2 -15 5 -16 8 -6 20 10 12 10 15 -2 12 -8
-2 -13 2 -12 9 2 7 -4 10 -12 7 -11 -5 -13 -2 -9 10 3 9 10 14 14 11 5 -3 12
0 16 6 4 7 3 9 -4 5 -14 -9 -21 15 -10 36 6 14 5 16 -7 12 -8 -3 -13 -9 -10
-13 2 -4 -3 -8 -11 -8 -11 0 -8 7 8 26 13 14 15 19 5 12 -9 -8 -21 -11 -24 -7
-4 4 -1 11 7 16 13 9 13 10 0 10 -12 0 -12 2 -1 9 9 6 10 11 2 15 -6 4 -11 2
-11 -4 0 -6 -5 -8 -12 -4 -10 6 -10 5 -1 -7 6 -8 8 -20 4 -27 -6 -10 -11 -9
-21 3 -11 13 -10 14 5 9 14 -6 16 -4 9 7 -5 8 -9 23 -9 34 0 19 -7 20 -126 21
l-126 1 -17 -28z m74 11 c0 -5 -2 -10 -4 -10 -3 0 -8 5 -11 10 -3 6 -1 10 4
10 6 0 11 -4 11 -10z m163 -10 c9 -11 13 -20 7 -20 -5 0 -14 9 -20 20 -6 11
-9 20 -8 20 2 0 11 -9 21 -20z m-187 -6 c18 -15 18 -15 -2 -5 -21 10 -34 6
-34 -11 0 -5 5 -6 10 -3 6 3 10 1 10 -4 0 -13 -3 -13 -24 -5 -12 5 -13 10 -5
25 12 23 19 24 45 3z m274 -98 c0 -2 -7 -9 -15 -16 -13 -11 -14 -10 -9 4 5 14
24 23 24 12z m14 -132 c13 -5 14 -9 5 -20 -6 -8 -17 -14 -23 -14 -6 0 -4 5 4
10 13 9 13 11 0 20 -17 11 -10 13 14 4z m10 -48 c-3 -8 -12 -17 -20 -20 -18
-7 -18 -1 2 18 19 20 25 20 18 2z m-398 -70 c0 -14 -3 -23 -7 -20 -6 3 -6 22
0 42 3 10 7 -2 7 -22z m41 -121 c0 -8 -4 -12 -9 -9 -5 3 -6 10 -3 15 9 13 12
11 12 -6z m238 -143 c-3 -3 -11 0 -18 7 -9 10 -8 11 6 5 10 -3 15 -9 12 -12z
m-61 -45 c7 -6 6 -7 -4 -4 -8 2 -16 12 -17 23 -2 13 -1 15 4 4 3 -8 11 -19 17
-23z"/>
<path d="M2870 4861 c0 -5 8 -15 18 -22 15 -12 16 -12 5 2 -7 9 -10 19 -6 22
3 4 1 7 -5 7 -7 0 -12 -4 -12 -9z"/>
<path d="M3331 4794 c0 -11 3 -14 6 -6 3 7 2 16 -1 19 -3 4 -6 -2 -5 -13z"/>
<path d="M2870 4769 c0 -5 5 -7 10 -4 6 3 10 8 10 11 0 2 -4 4 -10 4 -5 0 -10
-5 -10 -11z"/>
<path d="M4316 4728 c4 -11 0 -20 -9 -24 -9 -3 -13 -13 -10 -22 4 -14 3 -15
-5 -2 -8 10 -7 19 1 29 9 11 9 13 0 8 -6 -4 -14 -3 -18 3 -3 5 -11 10 -18 10
-6 0 -2 -7 9 -16 19 -15 19 -16 0 -9 -19 5 -19 5 -4 -12 15 -16 15 -21 2 -43
-12 -19 -14 -20 -9 -4 3 11 -2 29 -10 40 -15 18 -15 18 -8 0 5 -14 3 -17 -7
-11 -9 5 -11 4 -6 -4 4 -6 12 -8 18 -5 7 4 8 2 4 -5 -4 -7 -13 -10 -19 -8 -7
2 -22 -13 -35 -35 -13 -22 -31 -38 -41 -38 -10 0 -24 -7 -31 -15 -7 -8 -16
-13 -20 -10 -11 6 -45 -47 -42 -64 2 -7 -1 -10 -7 -7 -5 4 -12 2 -15 -3 -4 -5
-1 -13 5 -17 8 -5 9 -3 4 6 -5 9 -4 11 4 6 9 -6 9 -11 -1 -23 -7 -9 -11 -18
-10 -20 2 -3 0 -8 -4 -11 -4 -4 -4 -1 0 6 4 7 1 15 -8 18 -9 3 -14 9 -11 13 2
4 -2 8 -10 8 -12 0 -12 -4 2 -20 16 -18 16 -20 1 -14 -9 3 -22 -1 -28 -9 -8
-9 -9 -14 -2 -14 6 0 13 6 15 13 4 9 6 9 6 -1 1 -7 5 -11 10 -7 5 3 12 2 15
-3 3 -5 -1 -9 -9 -10 -8 -1 -22 -3 -30 -4 -8 -1 -11 -6 -8 -11 10 -16 12 -58
3 -52 -8 5 -25 -24 -22 -37 1 -5 -2 -8 -8 -8 -13 0 -28 32 -23 50 4 13 3 13
-5 1 -6 -8 -8 -21 -4 -29 4 -11 2 -13 -9 -7 -12 8 -12 6 0 -8 7 -9 17 -15 21
-12 5 3 10 -1 13 -7 3 -10 8 -10 23 2 18 14 18 14 4 -4 -8 -11 -13 -20 -10
-22 3 -1 2 -6 -2 -10 -4 -4 -10 1 -14 10 -3 9 -11 16 -16 16 -7 0 -6 -5 1 -13
6 -8 7 -18 3 -22 -4 -5 -1 -4 7 0 11 6 13 4 8 -9 -5 -11 2 -26 18 -42 13 -13
25 -28 26 -32 0 -4 2 -9 4 -10 2 -2 2 4 1 14 -2 10 -8 20 -14 22 -6 2 -8 11
-5 20 4 15 3 15 -6 2 -9 -13 -11 -12 -8 5 1 11 7 21 12 23 10 2 11 -2 14 -34
0 -8 5 -13 10 -10 5 4 8 -2 6 -11 -1 -10 0 -22 3 -28 9 -15 10 -45 1 -39 -4 2
-11 -1 -15 -7 -4 -8 -3 -9 5 -5 6 4 14 0 17 -9 5 -13 9 -14 14 -4 6 9 12 8 25
-4 9 -10 19 -17 23 -17 4 0 -5 12 -20 25 -16 13 -28 30 -28 37 0 8 5 6 11 -5
6 -9 15 -15 20 -11 5 3 8 0 7 -8 -2 -7 6 -13 17 -14 11 -1 23 -2 28 -4 19 -7
33 -4 43 9 9 11 11 11 11 -3 0 -15 -10 -20 -29 -17 -5 0 -8 -4 -8 -10 0 -6 7
-8 16 -5 10 4 26 -1 38 -11 13 -12 17 -13 10 -3 -8 11 -7 22 2 40 9 17 14 20
14 9 0 -11 8 -16 23 -15 13 0 24 6 24 13 0 7 -5 9 -10 6 -6 -3 -7 -1 -3 6 4 6
13 8 19 4 20 -13 34 -11 33 2 0 8 4 13 9 12 6 -1 9 -6 7 -10 -1 -5 2 -6 8 -2
8 5 7 11 -1 21 -8 10 -8 14 0 14 6 0 11 6 11 13 0 6 -14 -2 -29 -20 -25 -27
-30 -29 -34 -13 -3 11 1 17 11 16 8 0 16 7 18 17 3 23 14 36 14 17 0 -10 4
-10 17 1 10 8 14 9 10 2 -4 -6 -3 -14 2 -18 6 -3 8 4 6 16 -3 17 0 20 15 16
11 -3 18 -1 14 4 -3 5 -11 9 -19 9 -19 0 -28 17 -14 26 7 4 9 3 6 -3 -4 -6 4
-13 17 -15 17 -3 23 -1 19 8 -2 6 1 15 8 20 8 5 10 3 5 -7 -4 -8 0 -5 9 6 9
11 21 20 28 20 7 0 12 6 12 13 0 7 7 17 15 23 13 9 12 10 -2 5 -14 -4 -15 -1
-8 17 4 12 13 21 20 19 7 -2 9 6 6 20 -3 13 -3 17 0 11 3 -7 10 -13 15 -13 6
0 7 5 4 10 -4 6 -3 16 2 23 14 18 14 59 1 51 -6 -4 -8 -3 -5 3 7 11 46 11 63
1 6 -4 11 -1 11 7 0 8 -4 12 -9 9 -11 -7 -10 7 2 26 6 9 5 19 -2 28 -9 10 -9
15 1 21 9 6 8 10 -6 16 -10 5 -22 7 -27 6 -4 -1 -14 3 -22 10 -7 6 -19 7 -25
3 -8 -5 -9 -3 -5 5 5 7 14 10 22 7 8 -3 14 -1 14 4 0 9 -14 14 -32 11 -5 0 -8
4 -8 10 0 6 7 9 15 6 8 -4 17 -1 21 6 4 7 4 9 -1 5 -4 -4 -14 0 -22 10 -8 9
-11 11 -8 4 6 -11 3 -12 -14 -3 -12 7 -27 9 -34 6 -6 -4 -3 1 7 9 11 9 17 19
13 22 -4 4 -13 1 -22 -6 -11 -9 -15 -9 -15 -1 0 7 -4 10 -9 6 -5 -3 -12 -1
-16 5 -4 6 -10 8 -15 5 -5 -3 -11 -1 -15 5 -3 5 -11 10 -16 10 -6 0 -7 -6 -3
-12 5 -9 2 -9 -9 1 -9 7 -17 14 -17 16 0 6 37 1 47 -7 8 -6 15 -3 22 11 8 13
8 22 1 26 -6 4 -9 1 -8 -6 2 -6 -3 -14 -11 -17 -9 -3 -11 0 -6 8 6 9 4 11 -4
6 -7 -5 -18 0 -27 10 -12 17 -13 17 -8 2z m-152 -170 c-3 -5 -10 -6 -15 -3 -5
4 -12 -1 -15 -9 -3 -9 -9 -14 -14 -11 -4 2 -17 -5 -29 -16 -12 -12 -24 -19
-26 -18 -6 7 30 44 45 47 8 2 16 7 18 12 2 5 12 8 22 7 10 -1 16 -5 14 -9z
m382 -20 c4 -7 3 -8 -4 -4 -17 10 -15 -9 3 -24 11 -9 12 -17 4 -32 -6 -11 -13
-17 -16 -14 -3 3 0 13 8 23 12 15 12 16 -3 10 -12 -4 -15 -2 -12 7 3 8 0 17
-6 21 -9 6 -9 10 1 16 18 11 17 11 25 -3z m-459 -63 c0 -8 -4 -12 -9 -9 -4 3
-8 9 -8 15 0 5 4 9 8 9 5 0 9 -7 9 -15z m403 -75 c0 -5 -5 -10 -11 -10 -5 0
-7 5 -4 10 3 6 8 10 11 10 2 0 4 -4 4 -10z m-54 -126 c1 -9 0 -13 -3 -10 -4 3
-13 0 -21 -7 -13 -9 -14 -9 -8 1 4 7 2 12 -5 12 -7 0 -4 6 7 14 21 16 27 14
30 -10z m-255 -207 c-10 -9 -11 -8 -5 6 3 10 9 15 12 12 3 -3 0 -11 -7 -18z"/>
<path d="M3321 4689 c-1 -25 21 -40 39 -27 12 8 12 9 -3 4 -12 -4 -21 1 -27
17 -6 15 -9 17 -9 6z"/>
<path d="M4385 4690 c-3 -5 -2 -10 2 -12 13 -7 33 -3 36 6 3 12 -31 17 -38 6z"/>
<path d="M4456 4653 c-6 -14 -5 -15 5 -6 7 7 10 15 7 18 -3 3 -9 -2 -12 -12z"/>
<path d="M4170 4642 c0 -8 -5 -10 -12 -6 -8 5 -7 0 2 -11 14 -17 13 -18 -3
-12 -10 4 -16 3 -12 -2 3 -5 -1 -11 -7 -14 -7 -3 -3 -5 8 -4 27 1 46 28 33 48
-7 11 -9 11 -9 1z"/>
<path d="M2883 4609 c9 -6 14 -15 11 -21 -4 -7 -2 -8 4 -4 7 4 12 3 12 -2 0
-6 8 -13 17 -16 14 -6 14 -3 -3 16 -23 28 -36 38 -49 38 -5 -1 -2 -5 8 -11z"/>
<path d="M4528 4598 c9 -9 7 -15 -6 -25 -15 -13 -14 -13 6 -3 19 9 21 14 11
26 -6 8 -14 14 -17 14 -3 0 -1 -5 6 -12z"/>
<path d="M3292 4576 c0 -6 -3 -21 -6 -33 -3 -17 -1 -20 11 -16 12 5 12 7 1 14
-10 7 -11 9 0 9 7 0 11 4 7 9 -3 5 3 11 12 13 16 3 15 5 -3 10 -12 3 -21 0
-22 -6z"/>
<path d="M1923 4561 c0 -11 5 -18 9 -15 4 3 5 11 1 19 -7 21 -12 19 -10 -4z"/>
<path d="M1857 4557 c4 -6 0 -8 -10 -4 -10 3 -17 2 -17 -4 0 -6 -5 -7 -11 -3
-6 3 -4 -5 6 -19 16 -25 16 -25 -4 -20 -12 3 -18 10 -14 17 4 6 -1 5 -11 -3
-12 -10 -14 -17 -6 -25 5 -5 10 -15 10 -20 0 -6 -5 -4 -10 4 -7 10 -10 11 -11
3 -3 -28 -4 -32 -10 -38 -4 -3 -5 10 -4 29 2 20 1 38 -3 40 -4 2 -8 -19 -7
-49 0 -29 -4 -51 -9 -47 -5 3 -7 -5 -3 -17 5 -19 3 -20 -10 -9 -15 12 -15 11
-4 -11 7 -13 8 -21 3 -17 -19 12 -25 -17 -7 -31 11 -7 13 -13 6 -13 -7 0 -9
-5 -5 -12 4 -7 3 -8 -5 -4 -6 4 -8 12 -5 18 4 7 2 8 -4 4 -6 -4 -8 -14 -5 -23
5 -12 3 -14 -8 -8 -11 7 -12 6 -2 -6 10 -12 10 -18 0 -29 -7 -8 -8 -10 -1 -7
7 4 23 -2 37 -13 14 -11 29 -19 34 -18 4 2 8 -1 9 -7 0 -5 -7 -9 -18 -7 -10 2
-18 -1 -18 -7 0 -6 7 -7 17 -4 10 4 14 2 10 -4 -4 -6 3 -9 18 -8 13 2 23 -1
22 -7 -1 -6 6 -12 16 -13 22 -4 36 -15 19 -15 -6 0 -10 -14 -10 -31 1 -18 4
-25 9 -18 4 7 5 19 2 28 -4 12 -3 13 4 3 6 -7 9 -26 8 -41 -1 -21 2 -28 12
-24 7 3 10 9 7 14 -3 5 0 9 5 9 6 0 11 -4 11 -10 0 -5 5 -10 11 -10 5 0 7 5 3
12 -4 7 -3 8 4 4 7 -4 17 -17 22 -29 10 -20 10 -21 -3 -4 -10 12 -17 14 -22 8
-3 -6 -1 -11 5 -11 6 0 8 -5 5 -10 -4 -6 -3 -10 2 -9 23 4 31 -3 28 -22 -4
-17 -2 -19 10 -9 16 13 21 25 8 17 -5 -3 -8 9 -9 26 l-1 32 12 -28 c6 -15 14
-25 18 -22 4 3 5 2 2 -2 -3 -3 1 -13 8 -22 11 -14 10 -14 -5 -2 -12 9 -18 10
-18 2 0 -6 5 -11 11 -11 5 0 7 -5 4 -11 -4 -6 2 -5 13 2 12 7 18 17 15 23 -3
5 -1 6 6 2 6 -4 9 -11 6 -16 -3 -4 2 -13 9 -19 11 -10 17 -8 25 6 6 10 11 13
11 7 0 -6 -7 -17 -15 -24 -13 -11 -18 -10 -30 6 -14 17 -14 17 -4 -8 11 -26
29 -38 29 -20 0 4 10 13 21 20 21 13 21 13 5 -9 -26 -38 -18 -46 9 -9 26 35
36 30 11 -6 -13 -18 -12 -20 13 -19 15 0 28 5 28 12 0 6 -7 9 -16 6 -13 -4
-13 -3 -2 5 7 5 18 16 23 23 8 11 9 10 4 -3 -4 -13 0 -18 14 -18 11 0 18 -6
16 -12 -1 -7 -1 -10 1 -5 3 4 10 4 15 1 7 -4 8 -2 4 4 -8 13 28 35 39 24 5 -4
5 -1 1 6 -6 11 5 17 27 13 4 0 7 3 7 9 0 16 -12 12 -51 -14 -26 -18 -36 -21
-36 -10 0 8 2 12 5 9 3 -2 13 0 24 6 16 9 17 13 7 27 -11 14 -11 15 1 5 19
-17 30 -16 30 2 0 16 43 31 59 20 7 -3 8 0 5 9 -3 9 -11 13 -17 9 -6 -3 -7 -1
-3 5 4 7 17 12 29 12 17 0 19 2 7 9 -8 6 -18 7 -22 5 -4 -3 -5 2 -2 10 6 15
18 20 37 17 5 -1 6 3 2 8 -3 6 -12 8 -19 5 -8 -3 -17 0 -22 7 -4 8 -3 10 4 5
7 -4 20 -2 29 4 17 10 16 10 -2 8 -15 -2 -20 4 -21 25 -2 15 1 25 6 22 4 -3
10 2 14 10 3 8 1 17 -5 20 -5 4 -6 11 -3 17 4 7 2 8 -5 4 -9 -6 -9 -11 0 -22
7 -9 8 -14 1 -14 -15 0 -21 22 -11 41 6 12 2 15 -22 13 -16 -1 -26 2 -23 7 3
5 -5 13 -17 17 l-23 9 22 5 c14 4 20 2 15 -4 -3 -7 -1 -8 6 -4 6 4 10 3 9 -2
-2 -6 0 -10 5 -11 19 -3 27 0 27 9 0 6 -6 9 -12 8 -7 -2 -12 3 -10 10 1 8 -2
11 -7 8 -5 -3 -12 1 -15 9 -5 14 -9 14 -33 -2 -21 -13 -25 -14 -17 -3 6 8 11
26 12 40 1 18 -1 21 -8 10 -5 -8 -7 -17 -5 -20 2 -3 -7 -6 -19 -6 -26 0 -28
15 -6 42 14 16 13 16 -10 4 -23 -12 -24 -12 -11 4 8 9 12 18 10 19 -50 34 -78
60 -73 69 4 6 -2 6 -15 -1 -17 -10 -21 -9 -21 4 0 18 -21 20 -40 3 -8 -7 -6
-2 5 11 l20 24 -23 -12 c-25 -13 -42 -7 -42 15 0 8 5 12 10 9 6 -4 8 -11 5
-16 -3 -5 1 -6 8 -3 16 6 17 28 2 41 -4 4 -5 2 -1 -4 4 -7 2 -13 -3 -13 -6 0
-11 5 -11 12 0 6 -9 1 -20 -12 -11 -12 -17 -27 -13 -33 3 -6 1 -7 -6 -3 -9 6
-8 14 4 33 13 19 14 28 5 37 -8 8 -9 6 -4 -9 4 -11 4 -17 -1 -13 -4 4 -16 3
-27 -3 -16 -9 -20 -7 -25 10 -3 12 -10 21 -15 21 -6 0 -7 -8 -3 -17 15 -37 16
-47 3 -27 -7 12 -19 19 -26 17 -6 -3 -10 -9 -7 -13 10 -17 -13 -19 -26 -3 -8
9 -9 14 -3 10 6 -4 19 2 28 12 13 15 14 18 1 18 -8 0 -11 -5 -8 -10z m-26 -74
c13 -16 12 -17 -3 -4 -10 7 -18 15 -18 17 0 8 8 3 21 -13z m333 -92 c-3 -3 -9
1 -13 8 -5 8 -14 10 -22 6 -8 -5 -11 -5 -7 0 11 12 -11 35 -27 29 -7 -3 -16
-1 -20 5 -4 7 0 8 11 4 13 -5 15 -3 9 7 -5 8 10 -1 33 -20 23 -18 39 -36 36
-39z m-57 14 c0 -8 -4 -12 -9 -9 -5 3 -6 10 -3 15 9 13 12 11 12 -6z m-377
-131 c0 -13 3 -14 14 -5 10 8 16 9 21 1 4 -6 3 -9 -2 -8 -4 2 -9 -1 -9 -7 -1
-5 2 -9 8 -7 5 1 7 -2 3 -8 -4 -6 -15 -4 -29 7 -22 17 -31 43 -14 43 4 0 8 -7
8 -16z m160 -168 c0 -2 -7 -7 -16 -10 -8 -3 -12 -2 -9 4 6 10 25 14 25 6z
m391 -49 c-10 -9 -11 -8 -5 6 3 10 9 15 12 12 3 -3 0 -11 -7 -18z"/>
<path d="M2936 4521 c-4 -5 -2 -12 3 -15 5 -4 12 -2 15 3 4 5 2 12 -3 15 -5 4
-12 2 -15 -3z"/>
<path d="M3286 4502 c-3 -5 1 -9 9 -9 8 0 12 4 9 9 -3 4 -7 8 -9 8 -2 0 -6 -4
-9 -8z"/>
<path d="M3250 4485 c-9 -11 -9 -15 -1 -15 7 0 9 -5 5 -12 -4 -7 -3 -10 1 -5
9 8 18 47 11 47 -2 0 -9 -7 -16 -15z"/>
<path d="M3205 4460 c-10 -12 -25 -18 -32 -16 -7 3 -15 1 -18 -4 -4 -6 2 -10
12 -10 11 0 25 -6 33 -12 12 -11 12 -10 1 4 -10 14 -9 18 7 27 11 6 22 7 26 3
4 -3 4 1 0 11 -8 21 -7 21 -29 -3z"/>
<path d="M3034 4436 c-3 -9 -11 -13 -17 -9 -6 4 -7 1 -2 -6 6 -10 11 -9 23 3
9 8 13 19 9 22 -4 4 -9 -1 -13 -10z"/>
<path d="M4525 4431 c3 -5 -1 -12 -7 -14 -8 -4 -7 -6 4 -6 23 -1 32 15 12 23
-8 3 -13 2 -9 -3z"/>
<path d="M1695 4389 c5 -27 11 -33 20 -20 3 6 2 11 -4 11 -6 0 -8 7 -5 15 4 8
1 15 -4 15 -6 0 -9 -10 -7 -21z"/>
<path d="M3958 4380 c16 -19 16 -35 -1 -21 -10 8 -14 7 -14 -3 0 -16 29 -15
34 1 2 5 -4 16 -14 24 -15 11 -16 11 -5 -1z"/>
<path d="M1664 4358 c-4 -7 -3 -8 5 -4 6 4 14 0 17 -8 3 -9 10 -16 15 -16 5 0
4 9 -3 20 -15 23 -24 25 -34 8z"/>
<path d="M2191 4361 c-8 -6 -9 -11 -3 -15 6 -3 14 -1 17 5 9 14 2 20 -14 10z"/>
<path d="M1673 4315 c0 -8 4 -12 9 -9 5 3 6 10 3 15 -9 13 -12 11 -12 -6z"/>
<path d="M3940 4319 c0 -5 5 -7 10 -4 6 3 10 8 10 11 0 2 -4 4 -10 4 -5 0 -10
-5 -10 -11z"/>
<path d="M4460 4320 c0 -6 7 -10 15 -10 8 0 15 2 15 4 0 2 -7 6 -15 10 -8 3
-15 1 -15 -4z"/>
<path d="M4416 4213 c-6 -14 -5 -15 5 -6 7 7 10 15 7 18 -3 3 -9 -2 -12 -12z"/>
<path d="M1775 4170 c-4 -6 -1 -9 7 -8 7 2 12 -2 11 -9 -2 -12 23 -12 32 0 3
4 2 5 -2 2 -3 -3 -14 2 -24 11 -11 10 -19 12 -24 4z"/>
<path d="M3075 4171 c-3 -5 -2 -12 3 -15 5 -3 9 1 9 9 0 17 -3 19 -12 6z"/>
<path d="M3102 4175 c15 -16 -13 -35 -33 -24 -10 5 -19 6 -19 2 0 -4 -5 -1
-10 7 -9 13 -10 13 -10 0 0 -13 -1 -13 -10 0 -7 11 -10 11 -10 2 0 -8 -5 -10
-12 -6 -8 5 -9 2 -5 -9 3 -10 2 -17 -4 -17 -6 0 -7 -4 -4 -10 3 -5 1 -10 -5
-10 -6 0 -8 11 -6 24 4 23 3 24 -19 14 -29 -13 -40 -38 -23 -50 11 -6 10 -8 0
-8 -7 0 -10 -5 -6 -12 4 -7 3 -8 -5 -4 -6 4 -9 12 -6 17 4 5 -1 12 -10 15 -13
5 -13 9 -3 22 12 14 11 14 -9 1 -19 -11 -20 -15 -7 -22 14 -8 13 -10 -3 -23
-22 -16 -33 -18 -33 -3 0 5 4 8 9 4 5 -3 13 0 17 7 4 7 4 10 -1 6 -4 -4 -14
-3 -22 4 -8 6 -13 7 -12 2 1 -5 1 -16 0 -24 -1 -13 -3 -13 -10 0 -6 8 -7 18
-5 22 3 4 -2 5 -11 1 -11 -4 -13 -8 -6 -13 7 -4 2 -15 -15 -31 -25 -23 -26
-23 -15 -2 16 32 14 41 -5 15 -8 -12 -20 -20 -25 -16 -6 3 -3 11 6 18 15 11
14 12 -3 12 -27 0 -21 -24 14 -54 l29 -25 -36 20 c-29 17 -39 18 -53 8 -15
-11 -15 -13 -1 -19 9 -3 13 -2 10 3 -3 5 -1 12 4 15 5 3 11 -4 14 -15 3 -12 3
-18 0 -15 -4 3 -13 0 -21 -7 -13 -9 -14 -9 -8 1 4 8 1 12 -9 12 -11 0 -15 -5
-11 -16 3 -9 2 -12 -5 -9 -5 4 -16 1 -24 -5 -12 -10 -19 -10 -32 1 -11 10 -14
10 -9 2 16 -27 14 -53 -3 -63 -10 -5 -21 -6 -25 -3 -4 4 -17 8 -29 9 -12 2
-16 0 -9 -2 6 -3 12 -10 12 -15 0 -6 -4 -7 -10 -4 -5 3 -17 2 -26 -3 -15 -8
-15 -10 0 -15 11 -5 15 -3 10 5 -4 7 -3 8 4 4 17 -10 15 -23 -4 -30 -9 -4 -13
-2 -8 5 4 8 0 7 -15 0 -11 -7 -21 -14 -21 -17 0 -3 5 -2 12 2 7 4 8 3 4 -5
-12 -18 -27 -2 -21 22 5 18 4 19 -4 6 -15 -23 -3 -59 17 -52 15 4 15 3 2 -6
-12 -8 -19 -6 -34 12 l-19 22 7 -22 c5 -16 4 -22 -6 -20 -7 2 -10 2 -5 0 13
-8 7 -25 -8 -20 -8 4 -17 1 -21 -5 -4 -6 -3 -8 3 -5 6 4 13 0 17 -8 3 -8 1
-17 -5 -20 -5 -4 -6 -12 -2 -18 4 -7 0 -6 -10 2 -18 15 -23 26 -7 16 15 -9 12
1 -5 15 -12 10 -14 8 -10 -9 2 -12 7 -26 10 -31 4 -6 1 -9 -6 -8 -6 2 -14 -3
-17 -11 -3 -8 0 -11 7 -7 7 4 9 1 5 -8 -3 -8 -12 -12 -21 -9 -13 5 -13 3 -4
-16 9 -17 9 -21 -1 -19 -7 2 -12 -3 -10 -10 1 -8 -2 -11 -8 -7 -5 3 -10 1 -10
-4 0 -6 -8 -11 -17 -12 -15 0 -15 -2 2 -8 11 -5 24 -6 29 -3 5 3 6 0 2 -6 -4
-6 -13 -9 -22 -5 -16 6 -16 -17 1 -29 6 -5 5 -8 -4 -8 -10 0 -11 -3 -2 -14 10
-12 8 -13 -8 -9 -12 3 -18 10 -14 17 13 20 11 35 -5 48 -15 11 -15 11 -4 -4
10 -13 10 -17 0 -21 -10 -4 -10 -6 1 -6 11 -1 11 -4 1 -16 -7 -8 -9 -15 -5
-15 5 0 1 -8 -8 -18 -16 -17 -15 -20 4 -41 27 -28 20 -37 -9 -11 -28 26 -33
25 -19 -4 7 -13 15 -22 19 -20 3 2 10 -1 14 -7 4 -7 3 -9 -3 -6 -13 8 -36 -17
-26 -27 4 -4 0 -4 -9 -1 -11 4 -20 -1 -28 -15 -6 -11 -16 -17 -22 -14 -7 4 -8
3 -4 -5 4 -6 12 -9 17 -6 5 4 9 1 9 -4 0 -6 -13 -11 -30 -11 -16 0 -30 4 -30
9 0 5 -7 12 -16 15 -8 3 -13 2 -10 -3 3 -5 -1 -12 -10 -15 -21 -8 -24 -8 -24
5 0 5 4 8 9 5 11 -7 8 20 -3 31 -4 4 -6 3 -4 -2 2 -6 -1 -11 -7 -12 -5 -1 -9
6 -7 15 2 16 2 16 -8 0 -6 -9 -17 -15 -25 -12 -8 4 -12 11 -8 17 3 5 1 7 -4 4
-6 -4 -14 0 -17 9 -5 13 -9 14 -21 4 -8 -7 -15 -9 -15 -4 0 5 -7 0 -15 -10
-18 -23 -20 -14 -4 17 7 12 8 19 4 15 -5 -4 -15 -2 -24 5 -14 11 -14 10 -2 -5
9 -12 10 -18 2 -18 -6 0 -14 7 -18 16 -4 11 -8 12 -13 4 -6 -9 -14 -8 -34 5
-23 15 -26 16 -20 2 3 -9 9 -15 12 -14 4 1 8 -2 10 -8 3 -13 -37 -14 -66 -1
-15 6 -21 15 -17 25 4 14 3 14 -8 0 -10 -14 -14 -14 -25 -3 -15 17 -32 18 -32
3 0 -5 4 -8 9 -4 5 3 12 2 15 -3 9 -15 -29 -9 -40 6 -9 12 -13 12 -26 -2 -20
-20 -32 -21 -25 -2 7 18 -30 13 -47 -5 -7 -8 -7 -10 -1 -6 6 3 17 1 25 -4 11
-7 8 -8 -10 -5 -16 2 -24 10 -24 20 1 9 -3 13 -10 9 -18 -12 -36 -12 -36 0 0
6 -6 3 -13 -8 -10 -12 -16 -14 -21 -7 -9 15 -26 16 -26 1 0 -5 5 -7 12 -3 6 4
8 3 5 -2 -3 -6 5 -10 18 -10 13 0 22 3 19 7 -6 11 25 4 36 -7 7 -7 -2 -10 -27
-9 -21 1 -44 -3 -52 -9 -11 -8 -13 -8 -7 2 4 7 1 15 -8 18 -9 3 -14 10 -11 14
3 5 1 12 -5 15 -6 4 -9 1 -8 -7 2 -7 -3 -12 -9 -11 -7 2 -13 -2 -13 -7 0 -6 7
-10 16 -8 10 2 18 -3 20 -10 1 -7 0 -8 -2 -3 -7 13 -36 2 -51 -18 -6 -9 -15
-13 -19 -9 -11 11 -35 -12 -27 -26 4 -6 -1 -5 -10 2 -18 15 -41 7 -30 -11 4
-7 -1 -6 -10 2 -23 18 -10 29 41 33 9 1 8 6 -3 18 -8 9 -13 20 -10 23 3 4 2 4
-2 1 -5 -3 -9 -10 -9 -15 -1 -5 -2 -14 -3 -19 0 -6 -4 -9 -8 -9 -5 1 -11 0
-15 -1 -20 -6 -34 -5 -40 5 -5 6 -8 6 -8 -2 0 -7 -7 -10 -17 -7 -15 5 -16 4
-3 -5 13 -9 12 -11 -3 -11 -10 0 -16 -4 -13 -9 3 -4 -7 -13 -22 -20 -25 -11
-26 -10 -8 4 25 19 17 19 -19 1 -14 -8 -21 -16 -14 -18 9 -3 8 -9 -2 -26 -17
-27 -34 -23 -33 6 1 12 -3 19 -8 16 -5 -3 -7 -8 -4 -11 3 -3 0 -10 -5 -17 -5
-6 -17 -20 -25 -31 -15 -20 -15 -19 -5 2 13 27 14 36 2 29 -5 -4 -12 0 -15 6
-3 7 -3 3 -1 -9 3 -12 1 -24 -5 -28 -6 -3 -8 -10 -5 -15 3 -5 -4 -7 -15 -5
-13 2 -20 -1 -20 -11 0 -9 -5 -12 -12 -8 -7 5 -9 2 -5 -9 4 -11 2 -14 -8 -11
-8 3 -11 13 -8 21 4 11 2 14 -5 9 -7 -4 -12 -16 -12 -28 0 -16 -3 -18 -14 -9
-10 9 -17 7 -27 -6 -13 -16 -12 -17 2 -5 14 10 18 10 23 -3 3 -9 11 -13 17 -9
8 4 9 3 5 -5 -4 -6 -11 -9 -16 -6 -5 3 -12 1 -15 -5 -5 -8 -12 -7 -23 2 -13
11 -14 11 -7 -1 6 -11 4 -13 -8 -8 -8 3 -21 -1 -27 -8 -7 -8 -15 -13 -19 -11
-3 2 -12 -2 -19 -10 -10 -11 -10 -14 0 -14 8 0 6 -5 -5 -11 -9 -6 -15 -14 -12
-20 4 -5 1 -9 -4 -9 -6 0 -11 -8 -11 -17 0 -15 2 -14 14 2 8 11 12 24 9 29 -4
5 -1 6 5 2 11 -6 16 5 14 26 -1 3 5 9 13 12 17 6 21 -9 5 -19 -6 -4 -8 -10 -5
-15 3 -4 -2 -11 -11 -14 -8 -3 -13 -10 -9 -15 6 -11 -6 -20 -34 -26 -15 -3
-18 0 -13 13 5 15 4 15 -12 -1 -15 -15 -16 -21 -6 -30 10 -9 11 -9 6 0 -5 9
-2 11 10 6 15 -5 15 -7 0 -15 -9 -5 -20 -7 -25 -3 -5 3 -19 -7 -30 -21 -12
-15 -21 -21 -21 -14 0 10 -3 10 -14 1 -9 -8 -13 -27 -12 -52 2 -24 0 -35 -5
-28 -4 8 -11 10 -15 7 -4 -4 -16 -3 -27 3 -13 7 -17 7 -13 1 10 -17 -10 -23
-39 -12 -17 7 -24 7 -20 0 3 -6 12 -10 20 -10 8 0 17 -5 21 -11 5 -8 -1 -10
-20 -7 -20 4 -24 2 -17 -5 15 -15 14 -24 -4 -24 -8 0 -15 7 -16 16 0 10 -4 7
-10 -7 -5 -14 -13 -20 -20 -16 -7 4 -9 3 -6 -4 4 -5 18 -9 32 -8 13 2 22 -1
19 -6 -3 -5 -11 -7 -17 -5 -7 2 -21 -3 -32 -12 -18 -15 -19 -15 -7 1 12 15 11
17 -7 15 -14 -1 -20 -6 -16 -15 2 -7 1 -10 -4 -7 -6 3 -14 -3 -20 -12 -14 -24
-14 -7 0 19 6 11 9 22 6 24 -2 3 -12 -12 -22 -31 -11 -25 -21 -35 -31 -31 -11
4 -14 1 -9 -13 5 -16 1 -19 -20 -17 -14 2 -25 -1 -25 -6 0 -5 -4 -7 -9 -3 -5
3 -12 -4 -16 -15 -4 -11 -11 -17 -17 -14 -7 5 -8 2 -3 -6 6 -10 11 -9 21 4 7
10 24 19 39 20 24 3 25 3 8 -14 -10 -9 -21 -13 -24 -8 -3 5 -17 -3 -29 -19
-13 -15 -20 -20 -17 -11 3 9 0 19 -7 21 -9 4 -11 -2 -8 -19 2 -14 0 -24 -7
-24 -6 0 -10 3 -10 8 3 19 -2 32 -12 32 -8 0 -8 -5 1 -15 12 -15 4 -21 -23
-16 -5 1 -6 -3 -2 -8 3 -6 12 -8 19 -5 7 3 19 -2 26 -11 11 -13 11 -16 0 -13
-8 2 -14 -2 -15 -9 0 -6 -3 -15 -7 -19 -4 -3 -6 2 -4 13 3 12 -1 20 -9 20 -7
0 -11 -6 -9 -12 3 -6 -5 -23 -16 -36 l-21 -24 17 30 16 30 -21 -25 c-11 -14
-21 -28 -21 -31 0 -3 -10 -11 -22 -18 -22 -10 -22 -11 -2 -6 13 4 24 0 27 -9
4 -10 0 -12 -14 -9 -12 3 -19 0 -19 -8 0 -8 -6 -5 -15 7 -15 17 -15 16 -1 -12
15 -31 15 -31 -11 -26 -18 3 -24 1 -19 -7 4 -6 12 -8 18 -5 5 4 4 -4 -3 -17
-7 -13 -12 -28 -10 -34 1 -5 -1 -6 -5 -2 -11 11 -14 38 -3 31 5 -3 9 -1 9 5 0
5 -9 9 -19 8 -15 -1 -17 -4 -9 -14 6 -7 7 -13 4 -13 -4 0 -2 -9 3 -19 8 -14 7
-22 -6 -32 -14 -12 -16 -12 -8 1 6 12 5 12 -5 3 -15 -14 -4 -36 13 -26 8 5 8
2 0 -9 -7 -8 -11 -17 -8 -20 3 -3 -5 -10 -18 -15 -18 -9 -24 -8 -24 2 0 7 6
11 12 8 7 -2 15 2 18 11 3 8 0 17 -8 20 -10 3 -12 0 -8 -12 6 -15 5 -16 -12
-2 -11 9 -16 10 -11 3 5 -9 1 -13 -11 -14 -17 0 -17 -1 0 -8 10 -4 18 -10 18
-14 -3 -22 0 -27 10 -21 8 4 7 0 -1 -15 -11 -22 -30 -20 -30 2 0 7 4 6 11 -3
7 -10 9 -11 7 -2 -4 17 -23 16 -23 -1 0 -6 -4 -17 -8 -24 -10 -16 3 -45 18
-40 6 3 12 -1 12 -8 0 -14 -14 -14 -36 0 -8 5 -5 -5 7 -22 14 -20 18 -34 12
-38 -10 -6 -11 -5 -14 14 0 5 -5 13 -9 18 -5 4 -7 3 -5 -4 2 -6 -6 -19 -17
-28 -19 -16 -19 -16 3 -5 21 10 23 10 18 -7 -3 -10 -1 -25 4 -33 5 -9 5 -19
-2 -27 -7 -9 -6 -14 6 -19 9 -3 16 -11 16 -16 0 -7 -5 -6 -13 1 -8 6 -17 8
-20 4 -11 -10 -8 -23 4 -20 6 1 12 -8 14 -20 1 -13 -3 -19 -11 -16 -9 3 -12
-2 -9 -16 2 -12 -1 -21 -6 -21 -6 0 -7 -5 -4 -10 5 -8 11 -7 21 1 10 8 14 8
14 0 0 -6 -6 -11 -12 -11 -9 0 -8 -4 2 -11 13 -9 13 -10 -2 -6 -24 8 -30 -4
-10 -20 16 -12 15 -13 -3 -6 -34 11 -37 15 -19 27 12 9 14 15 5 20 -8 5 -8 13
-1 26 8 16 8 18 -5 14 -8 -4 -15 -1 -15 6 0 6 4 9 8 6 4 -2 8 6 8 19 0 14 -5
26 -10 28 -8 3 -11 -43 -11 -139 0 -93 3 -140 9 -134 16 16 49 12 42 -5 -3 -8
1 -21 9 -29 13 -12 12 -15 -1 -20 -10 -4 -13 -2 -8 6 5 7 3 8 -6 3 -10 -6 -12
-4 -7 8 4 10 1 17 -6 17 -8 0 -6 4 3 10 9 6 10 10 3 10 -20 0 -23 -15 -7 -45
11 -22 12 -31 2 -43 -8 -10 -9 -13 -2 -9 13 7 29 -19 33 -54 0 -6 8 -9 16 -5
8 3 15 1 15 -4 0 -6 -6 -10 -14 -10 -8 0 -14 -9 -13 -19 0 -11 5 -17 9 -15 5
3 5 10 2 16 -4 6 -2 8 3 5 12 -7 5 -56 -10 -74 -6 -9 -6 -13 2 -13 6 0 11 5
11 12 0 7 10 -2 23 -20 17 -23 27 -28 35 -20 6 6 8 18 5 27 -4 13 -3 13 5 2 7
-10 6 -21 -5 -38 -8 -13 -11 -23 -5 -23 6 0 13 6 16 13 3 6 3 2 0 -10 -4 -19
-2 -22 13 -17 15 5 15 4 3 -4 -10 -8 -18 -8 -27 0 -10 8 -12 7 -7 -6 3 -9 11
-16 18 -16 6 0 4 -5 -4 -10 -8 -5 -10 -10 -4 -10 5 0 15 5 22 12 9 9 12 9 12
1 0 -7 -5 -15 -10 -18 -6 -3 -10 -11 -10 -17 0 -7 4 -7 13 0 14 12 23 7 52
-27 11 -14 14 -21 6 -16 -11 6 -13 4 -7 -10 5 -14 4 -16 -7 -7 -10 9 -14 9
-14 -1 0 -7 9 -14 19 -14 10 -1 18 3 18 8 0 6 4 7 10 4 12 -7 -10 -34 -25 -30
-5 1 -7 0 -2 -2 4 -3 4 -10 0 -16 -3 -7 3 -4 14 6 15 13 23 15 28 7 4 -6 4
-14 1 -17 -3 -4 -6 0 -6 8 0 12 -2 12 -9 -1 -14 -21 -1 -33 17 -16 15 13 20
13 36 0 11 -8 14 -14 8 -14 -7 0 -12 -5 -12 -11 0 -5 4 -7 10 -4 6 4 7 -1 3
-11 -5 -12 -3 -15 6 -9 10 5 11 2 7 -13 -6 -17 -3 -21 13 -19 11 0 18 4 15 8
-2 4 1 11 7 15 8 4 9 3 5 -4 -4 -7 -2 -12 5 -12 8 0 7 -5 -2 -17 -12 -14 -12
-15 0 -9 10 7 12 3 6 -15 -7 -24 -7 -24 10 -4 14 17 16 17 11 2 -4 -11 0 -17
12 -17 10 0 13 -3 6 -8 -6 -4 -4 -13 8 -24 10 -10 18 -14 18 -10 0 4 -5 13
-12 20 -8 8 -8 12 -1 12 6 0 16 -7 23 -15 9 -11 16 -12 25 -5 10 8 15 8 21 -1
4 -7 3 -9 -4 -5 -6 3 -13 2 -17 -4 -4 -6 -11 -8 -16 -5 -5 4 -9 1 -9 -6 0 -6
8 -9 20 -6 10 3 25 -2 31 -10 9 -10 14 -11 19 -3 4 7 13 2 23 -13 12 -19 13
-24 2 -24 -8 0 -12 4 -9 8 2 4 0 10 -5 13 -5 4 -8 -2 -7 -11 2 -10 5 -16 8
-13 3 3 16 -4 29 -15 18 -15 20 -15 10 -3 -8 12 -9 18 -3 18 6 0 9 8 6 18 -5
14 -4 14 4 2 6 -8 8 -18 6 -22 -3 -4 1 -8 9 -8 8 0 17 -7 20 -15 4 -8 15 -12
26 -10 11 2 25 -2 31 -10 8 -10 8 -13 -2 -11 -7 1 -18 5 -24 9 -7 4 -18 -1
-25 -11 -13 -15 -12 -16 4 -3 10 8 17 9 17 3 0 -6 8 -11 18 -11 33 1 54 -8 63
-24 5 -9 16 -14 24 -11 8 4 12 10 9 15 -3 5 3 6 12 2 16 -6 15 -7 -2 -20 -21
-15 -11 -17 16 -3 16 8 18 6 16 -15 -3 -24 11 -29 27 -10 5 6 5 -1 1 -15 -6
-21 -5 -23 8 -12 13 10 17 10 22 -3 3 -9 11 -13 17 -9 8 4 9 3 5 -5 -6 -8 -12
-9 -20 -2 -13 11 -36 -4 -36 -23 0 -5 6 -1 14 10 14 19 15 19 22 -1 4 -11 12
-23 18 -27 6 -4 11 -13 11 -20 0 -7 8 -12 18 -10 10 2 17 -3 17 -13 0 -8 5
-15 10 -15 6 0 15 -10 20 -22 6 -16 9 -18 9 -6 1 9 -20 36 -45 61 -33 33 -42
47 -32 53 7 4 10 4 6 -1 -8 -8 15 -35 31 -35 5 0 13 -10 16 -21 6 -17 9 -19
17 -8 8 11 9 10 4 -3 -5 -17 25 -44 36 -33 3 3 5 -2 5 -10 0 -10 -4 -12 -12
-5 -8 7 -12 5 -12 -5 0 -8 4 -12 8 -9 4 2 12 -4 18 -13 6 -10 11 -13 11 -7 0
7 7 15 16 18 14 5 15 4 4 -9 -9 -11 -9 -15 -1 -15 7 0 9 -4 6 -10 -3 -5 0 -7
8 -4 8 3 18 0 23 -7 4 -7 3 -10 -4 -5 -6 3 -13 3 -16 -2 -9 -16 29 -9 42 7 8
9 11 10 7 4 -6 -12 10 -53 17 -43 2 2 13 -2 25 -11 13 -9 20 -19 15 -24 -4 -5
-2 -5 5 -1 6 3 16 -1 21 -10 8 -15 10 -15 15 0 4 9 3 15 -1 13 -11 -3 -52 29
-45 36 3 4 12 -2 20 -13 8 -11 20 -17 29 -13 13 5 15 1 10 -14 -11 -36 33 -39
47 -3 5 13 6 13 6 0 1 -8 14 -23 31 -32 29 -16 30 -16 50 10 13 18 18 20 13 8
-5 -14 -3 -17 7 -11 8 5 11 4 7 -2 -4 -6 0 -16 7 -22 11 -10 17 -8 26 6 10 16
11 16 6 1 -3 -10 0 -18 6 -18 6 0 4 -8 -5 -18 -14 -15 -15 -19 -2 -19 8 0 12
4 10 8 -3 4 2 10 10 13 9 3 18 -1 22 -10 4 -12 8 -13 14 -3 6 10 11 10 21 1
11 -9 17 -9 26 0 9 9 12 7 13 -7 0 -19 1 -19 9 0 5 11 9 14 9 6 1 -10 4 -11
15 -2 11 10 17 8 25 -6 7 -12 10 -13 11 -4 0 10 3 11 13 2 10 -8 14 -7 14 3 0
7 -9 13 -20 12 -11 -1 -22 6 -24 14 -3 9 -1 11 4 5 4 -6 16 -11 26 -12 41 -2
46 -4 43 -15 -1 -7 -1 -10 1 -5 3 4 8 5 12 3 4 -3 6 8 5 23 -1 18 3 28 12 28
10 0 11 -4 3 -13 -7 -9 -7 -18 1 -31 11 -17 11 -17 6 2 -5 17 -3 16 14 -5 16
-20 19 -21 13 -5 -6 18 -5 19 13 5 10 -8 22 -19 26 -25 5 -6 8 -6 8 2 0 6 -5
15 -10 18 -6 4 -8 10 -5 14 2 5 -7 7 -20 5 -14 -1 -25 2 -25 7 0 5 12 8 28 6
15 -2 33 1 41 6 15 13 43 19 37 9 -2 -4 2 -13 10 -20 8 -7 14 -9 15 -5 0 4 5
-1 10 -12 9 -19 9 -19 5 1 -2 12 0 28 5 35 5 8 3 17 -4 22 -7 5 -3 6 10 2 19
-5 22 -3 16 12 -7 17 -6 17 11 0 21 -21 30 -22 23 -2 -4 8 -1 17 6 21 7 4 9 4
5 -1 -4 -4 -3 -16 3 -26 7 -15 6 -19 -6 -19 -8 0 -15 -5 -15 -10 0 -8 6 -8 17
-1 10 5 18 17 18 25 0 9 3 15 6 13 3 -1 13 4 22 12 10 7 17 10 17 5 0 -5 5 -2
11 6 9 12 10 12 5 -3 -3 -10 -6 -23 -6 -28 0 -6 -6 -7 -12 -2 -23 14 -37 12
-30 -5 4 -11 7 -12 10 -4 3 10 7 10 18 2 10 -9 16 -5 27 21 11 27 14 30 20 16
4 -11 3 -16 -3 -12 -6 4 -7 -1 -3 -11 4 -11 8 -13 11 -6 2 7 8 9 14 6 6 -4 6
1 -1 14 -8 15 -8 22 2 25 9 4 8 8 -3 16 -8 5 -18 7 -24 4 -5 -3 -6 -1 -2 5 13
21 48 -6 41 -31 -5 -16 -4 -18 3 -8 5 7 14 11 20 7 5 -3 9 2 8 12 0 11 5 16
15 14 9 -1 20 5 23 14 5 14 4 15 -9 4 -8 -7 -15 -9 -15 -5 0 4 -7 2 -15 -5 -8
-7 -15 -11 -16 -9 -7 37 -7 40 6 29 8 -7 15 -7 19 -1 5 7 41 8 41 1 0 -1 12
-4 28 -6 15 -1 27 2 27 7 0 6 -4 7 -10 4 -6 -3 -7 1 -4 9 3 9 10 16 16 16 5 0
7 -3 4 -8 -2 -4 1 -18 8 -31 11 -20 14 -21 19 -7 4 10 3 15 -3 11 -6 -3 -10
-1 -10 4 0 17 19 13 42 -9 16 -15 25 -17 35 -9 9 9 13 8 13 0 0 -7 4 -10 9 -6
6 3 13 0 18 -8 6 -10 14 -9 40 4 18 9 29 19 26 23 -4 4 0 4 10 0 14 -5 15 -9
6 -20 -7 -8 -9 -17 -5 -21 3 -3 6 -1 6 5 0 18 28 14 39 -6 6 -9 11 -13 11 -9
0 4 -7 18 -16 31 -10 17 -12 26 -4 31 6 3 9 1 8 -7 -2 -8 4 -12 15 -10 9 2 17
-2 17 -8 0 -6 -5 -8 -12 -4 -7 4 -8 3 -4 -5 6 -9 11 -9 24 1 13 11 14 11 8 0
-4 -7 -2 -19 4 -27 15 -18 -1 -20 -20 -2 -8 6 -6 2 4 -10 18 -21 20 -22 32 -6
7 11 9 24 4 34 -7 12 -4 16 13 15 21 -1 32 -15 20 -26 -4 -3 -3 0 0 6 3 6 -1
11 -9 11 -9 0 -11 -4 -5 -10 5 -5 8 -15 7 -21 -2 -6 -1 -8 1 -3 3 4 9 5 14 1
5 -3 9 -2 8 3 -5 22 14 43 33 37 14 -4 18 -2 14 5 -5 7 -1 8 10 4 12 -5 15 -3
9 6 -6 11 -3 11 16 0 13 -7 39 -13 57 -15 27 -1 32 1 27 14 -3 9 -3 13 1 9 4
-4 14 -1 23 6 14 10 14 10 3 -5 -10 -12 -10 -18 -1 -24 8 -4 9 -3 5 4 -10 16
7 15 23 -1 11 -10 12 -9 5 3 -13 23 -13 37 1 37 7 0 11 -5 9 -11 -2 -6 6 -17
18 -25 21 -13 22 -13 9 3 -11 13 -11 20 -3 28 9 9 12 8 12 -4 0 -16 22 -19 36
-5 12 12 26 8 18 -5 -4 -7 -3 -8 5 -4 6 4 8 12 5 18 -5 7 -2 9 7 6 10 -4 15 2
17 19 1 16 -2 22 -10 17 -7 -4 -8 -3 -4 5 8 12 30 1 48 -24 4 -5 6 0 5 12 0
12 -4 20 -8 17 -4 -2 -13 4 -20 14 -13 15 -12 16 4 3 14 -11 17 -11 17 0 0 11
2 11 10 -1 5 -8 10 -10 10 -5 0 6 8 1 17 -10 12 -15 14 -16 10 -3 -3 9 1 22 9
29 12 10 12 14 2 21 -9 6 -6 7 9 3 15 -4 26 1 38 17 12 15 15 17 12 6 -4 -10
-2 -18 3 -18 10 0 14 13 11 40 -2 13 -1 13 8 0 9 -12 11 -13 11 -1 0 8 3 11 6
8 4 -4 1 -14 -7 -24 -9 -11 -10 -14 -1 -9 6 4 12 3 12 -3 0 -5 -5 -12 -10 -14
-6 -3 -5 -4 2 -3 7 2 13 9 14 17 1 24 15 61 21 55 4 -3 12 -1 19 5 8 6 20 9
28 6 10 -4 13 -1 9 8 -3 8 -10 12 -17 9 -6 -3 -3 1 6 9 10 8 15 17 11 20 -3 4
-1 7 6 7 7 0 11 -6 8 -13 -3 -8 -1 -20 5 -28 8 -11 9 -10 4 4 -5 15 5 22 27
18 5 -1 6 3 2 9 -6 9 8 15 29 11 5 -1 4 5 -4 13 -11 14 -8 20 10 18 3 0 7 9 7
21 2 21 1 21 -17 -3 -10 -13 -16 -29 -13 -35 4 -5 3 -7 -2 -3 -4 4 -14 0 -22
-10 -13 -15 -13 -15 -3 5 5 12 15 25 20 28 6 4 8 10 5 15 -3 4 2 11 11 14 8 3
12 10 9 16 -4 6 1 7 11 3 13 -5 15 -3 9 7 -5 8 -4 11 3 6 6 -4 9 -13 6 -20 -3
-8 -1 -17 5 -21 7 -3 8 0 5 9 -4 9 -1 16 6 16 9 0 9 4 -1 17 -13 15 -12 15 10
4 15 -8 21 -9 17 -2 -4 6 0 14 8 17 9 3 14 10 11 14 -3 5 -1 11 4 15 6 3 8 12
4 21 -4 11 -8 12 -19 3 -8 -7 -16 -10 -19 -8 -2 3 4 10 15 17 15 9 22 9 34 -3
18 -19 32 -20 17 -2 -11 14 -5 27 11 27 5 0 6 -5 2 -12 -4 -7 -3 -8 5 -4 6 4
9 11 6 16 -3 4 0 10 7 12 7 3 5 7 -6 11 -12 5 -15 3 -10 -6 4 -6 4 -9 -1 -5
-4 4 -14 0 -22 -10 -8 -9 -6 -1 5 18 11 19 17 41 15 48 -3 7 1 10 10 6 8 -3
18 0 22 5 3 6 11 8 17 5 6 -4 8 -2 5 3 -4 6 0 16 8 23 11 9 12 16 5 25 -14 17
-2 45 24 55 17 7 18 9 4 9 -10 1 -18 5 -18 10 0 5 8 12 18 14 14 4 14 5 1 6
-13 1 -16 11 -15 45 0 33 4 42 15 38 9 -4 12 -1 7 7 -4 6 -2 19 6 28 11 15 11
16 -6 10 -16 -6 -17 -5 -7 7 7 8 20 12 29 9 13 -4 12 -2 -3 10 -15 11 -22 12
-28 4 -6 -8 -7 -8 -5 2 2 8 12 15 21 17 9 1 15 -1 12 -6 -3 -5 3 -7 12 -6 10
2 18 11 18 23 0 11 7 28 15 39 13 17 13 18 0 7 -13 -10 -18 -9 -27 5 -8 14 -7
23 7 39 10 12 20 20 22 18 3 -3 5 2 5 10 0 9 -6 14 -14 11 -7 -3 -13 -1 -13 4
0 5 10 10 22 12 14 2 22 11 23 25 2 23 -6 29 -18 16 -4 -3 -2 -12 4 -20 9 -10
8 -13 -3 -13 -19 0 -18 45 1 62 8 7 11 8 8 2 -3 -6 0 -11 8 -11 8 0 12 4 9 9
-15 23 -11 49 8 59 16 9 19 8 12 -3 -4 -7 2 -5 13 5 11 9 24 14 28 10 5 -5 4
-1 -3 9 -7 9 -9 18 -5 20 4 3 3 3 -4 2 -6 -2 -12 5 -12 14 0 9 -2 29 -4 45 -4
22 -2 25 10 15 10 -8 11 -13 3 -18 -8 -5 -7 -10 3 -18 12 -10 14 -8 11 13 -1
14 -7 32 -14 40 -8 10 -8 15 1 21 8 4 9 3 5 -4 -5 -8 -1 -10 9 -6 14 6 13 10
-7 32 -16 17 -19 26 -10 29 6 3 12 11 12 19 0 9 -4 13 -8 10 -5 -3 -9 1 -9 8
0 7 6 13 13 13 7 0 11 -4 8 -9 -3 -4 3 -5 12 -1 11 4 13 8 6 11 -7 2 -9 8 -6
14 4 6 -2 8 -17 3 -21 -6 -20 -4 10 23 18 17 39 28 46 26 7 -3 16 -1 20 5 3 6
0 9 -8 5 -8 -3 -18 -1 -22 5 -11 18 -28 12 -20 -6 5 -14 3 -15 -5 -7 -8 8 -9
18 -3 30 5 11 8 31 7 47 -2 15 2 27 8 27 6 0 8 -3 5 -6 -3 -4 -2 -16 4 -27 6
-10 7 -17 2 -14 -5 4 -10 0 -10 -7 0 -8 7 -12 15 -8 11 4 13 1 7 -8 -5 -8 -4
-11 3 -6 11 7 7 31 -10 53 -5 7 -5 14 2 18 6 3 8 11 4 16 -3 5 -10 7 -15 4 -5
-4 -17 -1 -26 5 -13 8 -14 10 -2 7 12 -4 14 1 11 25 -3 20 -7 26 -13 17 -4 -7
-5 -17 -2 -23 3 -5 1 -6 -5 -2 -9 5 -9 13 -2 27 12 22 26 25 33 7 4 -10 6 -10
6 0 1 7 6 10 13 6 6 -4 8 -3 5 3 -4 6 -20 10 -37 9 -16 -1 -27 0 -25 3 3 2 -1
11 -8 19 -10 13 -9 14 1 8 11 -6 13 -1 10 20 -1 16 -10 32 -18 36 -10 5 -8 7
7 5 12 -1 22 1 23 6 1 21 -1 27 -17 43 -17 17 -17 18 0 11 15 -6 17 -3 12 16
-7 21 -6 21 8 3 8 -11 21 -20 29 -22 17 -2 20 27 4 39 -7 6 -4 7 7 3 14 -4 16
-1 13 18 -3 14 1 23 10 23 7 0 11 -4 9 -8 -3 -4 2 -9 10 -12 10 -4 12 -1 8 10
-5 13 -2 15 11 10 10 -4 24 -1 33 8 8 8 18 13 23 10 16 -10 20 13 5 25 -20 17
-19 27 5 35 11 3 29 24 42 46 13 23 25 35 29 28 5 -8 12 -8 26 0 11 5 23 8 27
6 3 -3 2 0 -3 7 -8 8 -15 8 -27 -3 -10 -8 -15 -9 -11 -2 4 6 4 13 0 16 -5 2
-2 2 5 1 6 -2 12 3 12 10 0 7 7 19 15 26 8 7 13 16 10 20 -3 4 3 14 13 21 15
12 16 12 4 -2 -10 -14 -10 -18 1 -22 8 -3 14 4 15 19 1 13 -3 24 -10 24 -6 0
-9 2 -6 5 8 9 38 -6 32 -16 -10 -17 2 -9 29 19 19 20 23 29 13 29 -8 0 -13 -4
-10 -8 2 -4 0 -10 -5 -13 -9 -6 -24 34 -16 43 3 2 5 -1 5 -7 0 -6 7 -9 15 -6
8 4 15 10 15 16 0 5 -4 7 -9 4 -10 -6 -25 24 -16 32 3 3 5 0 5 -7 0 -7 4 -10
9 -6 6 3 14 -3 20 -12 6 -10 11 -13 11 -6 0 6 -5 15 -11 19 -8 4 -7 9 2 15 11
7 11 9 1 9 -7 0 -10 5 -6 12 4 7 3 8 -5 4 -6 -4 -8 -12 -5 -18 5 -7 2 -8 -5
-3 -9 5 -10 10 -2 18 7 7 7 16 0 28 -7 15 -6 17 6 13 8 -3 12 -10 9 -15 -3 -5
0 -9 5 -9 6 0 11 5 11 11 0 5 6 7 13 3 9 -6 8 -3 -1 8 -8 10 -11 30 -9 47 3
16 2 32 -1 34 -4 2 -1 2 7 0 8 -2 11 2 8 10 -3 8 -1 20 4 28 5 8 9 9 9 3 0 -7
7 -14 15 -18 13 -5 13 -3 0 17 -9 14 -11 27 -5 37 5 9 5 19 -2 28 -6 7 -7 12
-2 11 19 -3 34 1 34 11 0 5 -7 7 -15 4 -22 -9 -18 5 8 28 12 11 18 17 12 15
-5 -3 -21 0 -35 5 l-25 9 22 18 c12 10 19 21 16 25 -4 3 -1 6 5 6 7 0 12 4 12
10 0 5 -7 7 -15 4 -22 -9 -18 5 8 28 12 11 18 17 12 15 -5 -3 -21 0 -35 5
l-25 9 23 19 c21 18 31 37 13 25 -15 -8 -21 9 -9 25 8 12 8 11 3 -5 -5 -16 -4
-17 6 -8 10 10 9 16 -1 28 -11 13 -11 18 -1 24 10 6 9 10 -4 14 -9 4 -13 3
-10 -2 3 -5 1 -12 -4 -15 -5 -4 -8 2 -6 11 2 10 4 22 4 26 1 5 6 5 13 1 7 -5
8 -3 4 5 -6 9 -13 8 -27 -5 -18 -16 -18 -15 -7 8 7 14 19 24 28 23 8 -1 10 0
3 2 -7 2 -9 12 -6 21 5 14 3 13 -9 -2 -8 -10 -20 -16 -26 -12 -5 3 -12 3 -15
-1 -2 -5 -2 -2 -1 5 2 6 -2 12 -9 12 -8 0 -6 4 3 10 13 8 8 14 -11 12 -3 -1
-6 6 -6 13 0 10 4 12 12 5 7 -5 16 -6 20 -2 5 4 5 2 2 -4 -3 -6 0 -11 8 -11
21 0 19 3 -22 33 -21 14 -30 24 -19 20 13 -5 17 -2 13 9 -4 8 -2 17 3 20 6 4
10 11 10 17 0 6 -10 0 -21 -13 l-21 -24 7 24 c5 18 4 22 -5 16 -9 -5 -11 -4
-6 4 4 6 11 9 15 7 4 -3 13 -1 21 5 11 6 12 9 2 9 -8 0 -10 5 -6 13 6 10 4 10
-7 0 -17 -17 -37 -17 -21 -1 14 14 16 29 3 25 -4 -1 -18 9 -31 23 l-22 25 22
-32 c12 -18 17 -33 11 -33 -6 0 -11 5 -11 11 0 8 -6 7 -17 -2 -16 -13 -17 -12
-5 3 14 17 8 43 -7 34 -4 -3 -8 1 -8 9 0 8 4 12 9 8 6 -3 8 3 7 13 -2 11 0 25
5 33 6 8 5 12 0 8 -5 -3 -18 1 -29 9 -10 8 -13 14 -7 14 7 0 12 4 12 9 0 8 -9
8 -40 1 -3 0 4 -8 15 -18 21 -18 35 -59 16 -47 -6 3 -11 11 -11 16 0 6 -7 17
-16 26 -8 9 -13 22 -10 30 5 11 0 13 -17 8 -17 -5 -19 -4 -7 4 13 10 13 11 0
12 -8 1 -18 1 -21 1 -3 -1 -6 6 -6 13 0 10 4 12 12 5 8 -7 12 -5 12 3 0 16
-27 18 -44 4 -9 -6 -13 -6 -13 2 0 6 5 11 11 11 5 0 7 5 3 12 -5 8 -2 9 9 5
17 -6 31 5 20 17 -4 3 -17 -1 -31 -10 -26 -17 -24 -8 7 31 15 19 15 19 -4 4
-11 -9 -26 -14 -34 -11 -7 2 -17 -2 -22 -9 -7 -11 -9 -10 -9 4 0 9 6 17 13 17
8 0 7 4 -3 10 -11 7 -11 10 -2 10 7 0 10 5 6 11 -4 8 -9 7 -15 -2 -5 -8 -9
-10 -9 -5 0 5 -7 3 -15 -4 -12 -10 -15 -10 -15 0 0 7 -7 10 -16 6 -9 -3 -12
-2 -9 5 4 6 13 8 21 5 7 -3 16 0 20 6 4 7 3 8 -4 4 -7 -4 -12 -2 -12 3 0 12
-27 10 -50 -4 -13 -8 -13 -7 0 11 8 10 19 22 23 25 5 3 1 9 -8 12 -9 4 -14 3
-11 -2 3 -5 -1 -14 -9 -21 -8 -7 -15 -9 -15 -5 0 4 -6 2 -14 -4 -14 -12 -15
-10 -7 28 1 2 8 -2 16 -9 12 -10 15 -10 15 4 0 9 -3 15 -7 15 -19 -3 -34 2
-29 9 2 4 -9 9 -25 10 -21 2 -28 -1 -23 -9 4 -7 3 -9 -4 -6 -5 4 -9 18 -7 32
2 19 -1 23 -10 15 -9 -8 -14 -8 -17 0 -2 6 -10 12 -18 13 -8 2 -20 6 -26 10
-13 8 -24 0 -20 -16 2 -7 1 -9 -1 -4 -3 4 -9 7 -14 7 -6 0 -7 -5 -3 -12 4 -7
3 -8 -5 -4 -9 6 -9 11 -1 21 9 11 6 13 -17 11 -37 -4 -53 3 -53 22 0 14 2 13
13 -2 12 -16 13 -16 13 3 0 11 -4 17 -8 15 -4 -3 -8 0 -8 7 0 7 -6 4 -14 -6
-8 -11 -12 -24 -8 -30 3 -5 -4 -2 -15 8 -16 14 -22 15 -26 5 -4 -11 -6 -11 -6
0 -1 7 -6 10 -13 6 -6 -4 -8 -3 -5 4 8 11 25 11 43 -1 19 -11 24 20 6 35 -15
12 -16 11 -3 -4 7 -10 10 -18 7 -18 -4 0 -19 8 -33 18 -15 9 -24 11 -19 4 4
-7 0 -19 -10 -30 -15 -14 -17 -14 -12 -1 3 9 2 22 -3 30 -7 11 -9 11 -9 -3 0
-22 -16 -23 -36 -3 -16 15 -48 9 -38 -7 4 -6 1 -8 -7 -6 -8 3 -13 11 -11 17 1
7 -2 10 -8 6 -6 -3 -8 -10 -5 -15 3 -4 -4 -6 -15 -3 -11 3 -17 10 -13 17 3 6
0 5 -8 -2 -12 -11 -12 -14 1 -22 9 -6 10 -10 3 -10 -7 0 -16 8 -22 17 -5 10
-13 15 -17 11 -3 -4 -16 -2 -28 4 -11 6 -18 7 -14 3z m173 -15 c3 -5 1 -10 -4
-10 -6 0 -11 5 -11 10 0 6 2 10 4 10 3 0 8 -4 11 -10z m-158 -15 c0 -8 -4 -12
-9 -9 -5 3 -6 10 -3 15 9 13 12 11 12 -6z m33 5 c0 -5 -5 -10 -11 -10 -5 0 -7
5 -4 10 3 6 8 10 11 10 2 0 4 -4 4 -10z m-86 -11 c3 -3 -4 -5 -14 -6 -11 -1
-20 2 -20 7 0 8 25 8 34 -1z m-104 -14 c-7 -8 -17 -15 -22 -15 -6 0 -5 7 2 15
7 8 17 15 22 15 6 0 5 -7 -2 -15z m602 -44 c3 9 6 8 10 -3 9 -23 -22 -16 -34
8 -9 18 -9 18 5 1 11 -13 16 -14 19 -6z m-87 -1 c3 -6 -1 -7 -9 -4 -18 7 -21
14 -7 14 6 0 13 -4 16 -10z m-650 -20 c3 -5 1 -10 -4 -10 -6 0 -11 5 -11 10 0
6 2 10 4 10 3 0 8 -4 11 -10z m833 -36 c-1 -5 -9 -9 -16 -10 -10 -2 -11 1 -1
12 12 14 24 13 17 -2z m147 -84 c3 -5 1 -10 -4 -10 -6 0 -11 5 -11 10 0 6 2
10 4 10 3 0 8 -4 11 -10z m-1338 -150 c-1 -11 -5 -20 -9 -20 -10 0 -10 4 -2
24 8 22 13 20 11 -4z m780 -24 c0 -9 -8 -13 -20 -11 -15 4 -17 2 -7 -11 8 -8
17 -11 24 -6 20 15 41 8 38 -13 -2 -16 -1 -17 7 -5 5 8 7 18 5 22 -3 4 0 8 6
8 6 0 8 5 4 12 -4 7 -3 8 4 4 6 -4 8 -14 5 -23 -5 -12 -3 -14 8 -7 19 12 59
12 52 0 -4 -5 1 -7 12 -3 17 7 17 6 0 -19 -9 -15 -12 -24 -7 -20 6 3 20 -6 31
-20 12 -15 21 -22 21 -17 0 5 -5 14 -12 21 -9 9 -9 12 0 12 6 0 9 6 6 14 -3 8
0 17 7 22 8 4 10 3 5 -4 -12 -19 4 -35 20 -21 9 7 14 8 13 3 -4 -21 2 -28 11
-14 8 13 10 13 10 -1 0 -9 6 -19 14 -22 9 -4 12 -14 9 -26 -3 -13 -1 -21 6
-21 7 0 9 4 6 10 -3 6 1 7 9 4 16 -6 23 -25 9 -23 -20 3 -33 -2 -33 -12 0 -8
4 -8 14 0 9 8 16 8 20 2 4 -5 15 -8 25 -6 13 2 18 -3 18 -18 1 -41 3 -47 18
-47 8 0 15 6 15 13 0 8 3 8 9 -2 5 -8 8 -29 6 -47 -1 -20 2 -32 9 -31 6 1 10
-4 8 -11 -1 -8 2 -11 9 -6 9 5 10 2 6 -9 -3 -9 -2 -19 4 -23 6 -4 6 -12 -3
-22 -10 -14 -10 -15 2 -5 16 15 23 46 8 37 -7 -4 -8 -2 -4 5 6 9 11 9 21 1 11
-9 10 -16 -2 -41 -8 -16 -18 -27 -23 -24 -5 3 -12 0 -16 -6 -4 -7 -3 -9 4 -5
6 3 13 2 17 -4 4 -6 11 -8 16 -4 5 3 7 10 4 15 -4 5 -1 9 4 9 6 0 11 -5 11
-11 0 -5 5 -7 12 -3 7 4 8 3 4 -5 -4 -6 -11 -9 -16 -6 -10 6 -21 -20 -12 -29
11 -11 12 -46 2 -46 -6 0 -10 -5 -10 -12 0 -6 9 -3 20 7 16 14 17 20 8 27 -7
4 -9 8 -4 8 5 0 3 7 -4 15 -9 10 -9 15 -1 15 6 0 11 -5 11 -11 0 -5 4 -7 10
-4 5 3 7 0 4 -8 -3 -8 -1 -18 5 -22 6 -3 11 -12 11 -18 0 -7 -4 -6 -11 3 -8
11 -9 8 -4 -14 5 -25 4 -28 -8 -18 -11 9 -14 8 -14 -3 0 -8 4 -12 9 -9 4 3 8
0 8 -7 0 -8 4 -8 13 -1 9 8 12 4 12 -13 0 -23 -1 -23 -25 -8 -25 16 -25 16 -7
-4 9 -11 14 -22 11 -26 -4 -3 4 -23 16 -44 l22 -38 -25 30 c-25 29 -26 29 -20
5 4 -14 14 -31 22 -38 15 -11 15 -12 0 -7 -10 4 -16 0 -16 -10 0 -8 4 -15 9
-15 4 0 8 -5 8 -11 0 -6 -5 -7 -12 -2 -7 4 -16 8 -20 8 -3 0 -10 4 -15 8 -4 5
-2 7 6 5 7 -2 15 5 16 15 3 17 2 17 -14 3 -17 -16 -25 -50 -9 -40 4 3 8 0 8
-6 0 -6 4 -9 9 -5 5 3 12 1 15 -4 4 -6 -6 -8 -24 -6 -16 2 -32 0 -35 -5 -3 -6
1 -7 9 -4 9 3 16 1 16 -5 0 -6 8 -7 17 -4 15 6 16 5 3 -9 -8 -9 -16 -12 -18
-7 -2 5 -10 9 -19 9 -13 0 -12 -2 1 -15 16 -16 12 -45 -6 -45 -6 0 -5 6 2 15
12 14 9 18 -7 13 -5 -2 -7 -6 -6 -10 2 -5 -3 -8 -10 -8 -8 0 -8 -3 2 -9 23
-15 22 -41 -1 -38 -12 1 -23 -5 -25 -13 -4 -13 -3 -13 6 0 6 8 11 10 11 4 0
-19 -13 -24 -28 -11 -13 10 -14 9 -4 -9 12 -24 7 -34 -17 -33 -13 0 -12 2 2 8
18 6 18 8 2 21 -9 7 -15 9 -14 4 1 -5 0 -12 -1 -16 -6 -20 -5 -34 5 -41 6 -5
4 -7 -5 -6 -28 3 -41 -1 -36 -10 4 -5 -7 -4 -23 2 -17 6 -28 14 -26 17 2 4 -3
7 -11 7 -10 0 -11 -4 -4 -11 17 -17 11 -30 -7 -15 -15 13 -15 12 -4 -11 11
-22 10 -23 -2 -8 -8 10 -18 14 -22 10 -4 -4 -2 4 5 17 11 21 10 23 -3 18 -9
-3 -18 1 -21 9 -3 9 -10 13 -15 10 -11 -7 -8 35 4 53 6 10 3 11 -11 3 -11 -5
-26 -7 -34 -5 -13 4 -13 3 0 -6 8 -5 18 -7 22 -5 15 9 8 -3 -9 -17 -9 -8 -14
-9 -10 -3 4 7 0 15 -9 18 -13 5 -14 9 -4 21 10 13 9 15 -9 15 -13 0 -19 4 -16
10 4 6 12 7 18 3 7 -4 6 0 -2 10 -15 18 -26 23 -16 7 7 -12 3 -12 -19 -4 -9 3
-16 12 -16 20 0 8 -5 14 -11 14 -8 0 -7 6 2 18 13 15 12 16 -3 3 -14 -11 -15
-17 -6 -35 10 -19 10 -20 -6 -7 -10 8 -15 23 -13 33 4 12 1 16 -6 11 -18 -11
-38 -12 -31 -2 3 5 9 7 14 4 5 -3 7 5 4 17 -3 13 -6 28 -6 35 -1 7 -5 10 -10
7 -4 -3 -4 -13 1 -23 7 -13 4 -20 -12 -31 -20 -12 -21 -11 -9 2 9 11 10 22 2
39 -10 22 -10 22 -6 2 2 -13 -3 -27 -13 -35 -9 -7 -13 -8 -8 -3 4 4 -1 17 -10
27 -12 13 -13 18 -4 16 7 -2 16 4 18 12 3 9 1 11 -4 5 -13 -16 -30 -16 -43 0
-9 11 -17 12 -32 4 -12 -6 -18 -7 -14 -1 8 14 -20 35 -35 26 -8 -5 -9 -3 -4 6
5 9 1 10 -16 6 -21 -6 -22 -6 -5 5 15 9 23 7 46 -9 25 -19 30 -19 46 -6 18 14
18 15 -2 5 -16 -8 -25 -7 -33 3 -6 7 -9 15 -6 18 2 2 -12 4 -33 4 -20 -1 -36
4 -35 9 1 6 -14 11 -32 11 -19 0 -32 -3 -29 -6 3 -3 11 -5 17 -5 5 0 12 -7 14
-15 4 -12 3 -12 -5 -2 -5 8 -12 13 -16 13 -20 -3 -25 2 -28 27 -2 18 -8 26
-18 23 -50 -13 -57 -12 -68 11 -12 22 -12 22 -8 -7 3 -16 3 -24 0 -17 -3 6
-10 9 -16 6 -6 -4 -8 2 -4 17 7 24 7 24 -8 -1 -9 -14 -15 -19 -16 -12 0 14
-21 12 -32 -3 -5 -6 -8 -5 -8 4 0 11 -3 11 -17 0 -15 -11 -16 -11 -6 1 9 9 9
18 1 33 -8 16 -12 17 -19 6 -5 -8 -9 -18 -9 -24 0 -5 5 -3 10 5 6 9 10 10 10
3 0 -24 -20 -23 -31 1 -6 13 -21 27 -33 30 -19 5 -19 3 4 -14 14 -10 21 -22
17 -26 -4 -4 -7 -2 -7 4 0 6 -9 14 -20 17 -16 5 -19 12 -14 27 13 41 14 99 2
92 -6 -4 -8 -3 -5 3 3 5 23 8 44 7 26 -2 33 -1 23 6 -8 5 -18 6 -24 3 -5 -3
-6 -1 -2 5 3 6 1 12 -6 15 -7 2 0 2 16 -1 25 -4 27 -2 15 11 -8 8 -18 12 -24
9 -5 -3 -4 2 4 11 7 9 10 17 7 17 -4 0 -4 5 0 12 5 7 11 5 21 -7 7 -11 13 -14
13 -7 0 6 -10 21 -22 32 l-23 21 28 -10 c27 -11 32 -6 28 27 -1 6 2 12 8 12 5
0 11 -6 14 -12 3 -7 4 -3 4 9 -1 18 -4 20 -20 11 -10 -5 -21 -7 -25 -4 -3 3 0
6 7 6 7 0 9 4 6 10 -4 6 1 7 12 3 15 -6 16 -4 6 8 -10 13 -10 16 2 16 8 0 13
-3 11 -6 -2 -3 2 -11 9 -18 10 -10 14 -9 19 3 3 9 11 12 18 8 7 -4 10 -4 6 0
-3 4 -8 6 -11 4 -2 -1 -11 3 -20 11 -18 14 -14 31 6 31 7 0 6 -4 -3 -11 -12
-9 -11 -9 5 -4 11 4 25 8 32 8 7 0 10 4 7 9 -3 5 -10 5 -16 2 -6 -4 -6 1 1 14
8 15 19 19 44 18 30 -2 33 0 32 23 -1 15 -4 31 -8 37 -3 6 0 11 8 11 8 0 12
-4 10 -8 -10 -15 24 -17 45 -2 17 12 24 13 30 3 5 -8 9 -7 14 5 3 10 11 13 18
9 10 -6 11 -5 1 8 -7 8 -10 18 -6 22 4 4 -1 4 -11 0 -12 -5 -14 -9 -6 -14 9
-5 9 -9 1 -14 -6 -4 -11 -5 -11 -2 0 2 -3 11 -6 20 -4 11 -1 16 10 16 9 0 16
6 16 13 0 8 4 7 10 -3 9 -13 14 -8 12 12 -1 3 5 9 14 12 11 4 12 2 4 -13 -7
-14 -6 -21 3 -24 18 -6 57 14 51 27 -3 6 2 2 10 -8 14 -18 16 -18 16 -3 0 14
4 16 19 8 14 -8 20 -7 24 3 3 8 16 12 31 11 14 -2 28 1 32 6 7 13 11 11 11 -5z
m-160 -11 c0 -8 -6 -16 -14 -19 -11 -4 -11 -1 -3 14 13 24 17 25 17 5z m323
-51 c0 -8 -5 -12 -10 -9 -6 4 -8 11 -5 16 9 14 15 11 15 -7z m-442 -5 c-2 -6
-7 -10 -12 -9 -5 1 -13 -4 -18 -12 -8 -10 -9 -10 -5 2 2 8 10 14 16 13 6 -2
11 2 11 7 0 6 3 10 6 10 3 0 4 -5 2 -11z m-78 -39 c0 -5 -5 -10 -11 -10 -5 0
-7 5 -4 10 3 6 8 10 11 10 2 0 4 -4 4 -10z m10 -24 c0 -3 -4 -8 -10 -11 -5 -3
-10 -1 -10 4 0 6 5 11 10 11 6 0 10 -2 10 -4z m680 -20 c0 -2 -7 -7 -16 -10
-8 -3 -12 -2 -9 4 6 10 25 14 25 6z m30 -62 c0 -8 -5 -12 -10 -9 -6 4 -8 11
-5 16 9 14 15 11 15 -7z m-1306 -48 c-3 -9 -10 -13 -16 -10 -5 3 -4 12 3 20
15 18 22 13 13 -10z m1359 -24 c-3 -7 1 -11 8 -9 8 2 10 2 5 -1 -4 -2 -2 -8 5
-13 9 -6 10 -9 2 -9 -19 0 -41 39 -35 63 5 20 6 20 12 1 4 -10 5 -25 3 -32z
m-1340 13 c-3 -9 -8 -14 -10 -11 -3 3 -2 9 2 15 9 16 15 13 8 -4z m422 -15 c3
-5 -1 -10 -10 -10 -9 0 -13 5 -10 10 3 6 8 10 10 10 2 0 7 -4 10 -10z m-1018
-45 c0 -8 -4 -12 -9 -9 -5 3 -6 10 -3 15 9 13 12 11 12 -6z m213 -9 c0 -2 -8
-10 -17 -17 -16 -13 -17 -12 -4 4 13 16 21 21 21 13z m134 -50 c11 -1 21 -8
22 -15 2 -7 0 -7 -3 -1 -3 7 -10 7 -21 -2 -13 -11 -14 -11 -8 1 7 10 3 12 -15
6 -19 -5 -21 -4 -9 4 14 10 13 12 -9 15 -16 2 -23 14 -16 26 4 7 12 3 23 -10
9 -12 26 -22 36 -24z m-114 30 c0 -3 -4 -8 -10 -11 -5 -3 -10 -1 -10 4 0 6 5
11 10 11 6 0 10 -2 10 -4z m50 -28 c0 -19 -16 -5 -17 14 -2 18 0 20 7 8 5 -8
10 -18 10 -22z m275 2 c3 -6 -1 -7 -9 -4 -18 7 -21 14 -7 14 6 0 13 -4 16 -10z
m-35 -10 c0 -5 -2 -10 -4 -10 -3 0 -8 5 -11 10 -3 6 -1 10 4 10 6 0 11 -4 11
-10z m-943 -22 c-3 -8 -6 -5 -6 6 -1 11 2 17 5 13 3 -3 4 -12 1 -19z m858 -8
c3 -6 -1 -7 -9 -4 -18 7 -21 14 -7 14 6 0 13 -4 16 -10z m-885 -14 c0 -2 -7
-7 -16 -10 -8 -3 -12 -2 -9 4 6 10 25 14 25 6z m1370 -26 c0 -5 -2 -10 -4 -10
-3 0 -8 5 -11 10 -3 6 -1 10 4 10 6 0 11 -4 11 -10z m0 -40 c0 -5 -5 -10 -11
-10 -5 0 -7 5 -4 10 3 6 8 10 11 10 2 0 4 -4 4 -10z m-1579 -63 c-10 -9 -11
-8 -5 6 3 10 9 15 12 12 3 -3 0 -11 -7 -18z m1860 -50 c-7 -7 -5 -14 7 -24 15
-13 15 -13 -5 -3 -32 15 -35 26 -16 46 12 12 18 13 21 4 2 -6 -1 -17 -7 -23z
m834 -6 c-6 -5 -25 10 -25 20 0 5 6 4 14 -3 8 -7 12 -15 11 -17z m-2825 -11
c0 -5 -5 -10 -11 -10 -5 0 -7 5 -4 10 3 6 8 10 11 10 2 0 4 -4 4 -10z m2078
-21 c-3 -8 -7 -3 -11 10 -4 17 -3 21 5 13 5 -5 8 -16 6 -23z m-2044 13 c3 -5
-1 -9 -9 -9 -8 0 -15 4 -15 9 0 4 4 8 9 8 6 0 12 -4 15 -8z m2180 -83 c-3 -5
-11 -9 -17 -9 -7 0 -6 4 3 10 10 6 11 10 3 10 -7 0 -13 5 -13 11 0 8 5 8 15
-1 8 -7 12 -16 9 -21z m-1378 -5 c15 6 15 4 3 -10 -12 -15 -11 -16 10 -9 18 5
22 4 16 -5 -5 -8 -4 -11 3 -6 5 3 12 0 15 -6 4 -10 7 -10 18 0 12 11 12 13 0
10 -7 -2 -16 3 -18 10 -3 6 0 12 7 12 6 0 8 6 4 13 -4 7 -3 9 2 4 5 -5 9 -14
9 -20 0 -7 7 -12 15 -12 9 0 14 -9 13 -23 -3 -23 11 -30 23 -10 5 7 3 8 -5 3
-10 -6 -11 -3 -1 16 18 34 24 38 15 11 -7 -23 11 -28 28 -7 5 6 7 4 4 -5 -2
-8 -11 -13 -18 -12 -8 2 -11 0 -7 -4 4 -4 0 -12 -9 -19 -13 -9 -13 -14 -3 -20
9 -5 11 -4 6 3 -7 11 6 17 27 13 5 -1 6 3 3 8 -3 5 1 12 10 15 8 3 12 2 9 -4
-3 -6 1 -10 9 -10 10 0 13 6 10 18 -5 14 -4 15 5 2 8 -11 6 -18 -7 -29 -15
-12 -15 -12 7 -6 18 5 22 4 16 -5 -6 -9 -4 -11 6 -4 8 5 22 7 33 5 13 -2 16 1
10 11 -4 7 2 5 13 -5 11 -10 26 -17 33 -15 7 2 14 -7 16 -19 2 -13 -1 -23 -6
-23 -6 0 -9 5 -7 11 1 6 -4 14 -10 16 -28 10 -11 -19 22 -38 19 -12 32 -26 28
-32 -3 -5 -1 -7 5 -3 6 3 13 2 17 -4 3 -5 12 -10 18 -10 8 0 8 3 -1 9 -8 4
-13 11 -13 15 4 29 0 38 -12 28 -7 -6 -18 -7 -26 -3 -9 6 -10 11 -2 15 6 4 11
2 11 -5 0 -9 3 -9 14 0 12 10 17 7 28 -16 7 -15 18 -28 25 -28 18 0 25 -12 12
-21 -8 -5 -10 -3 -4 6 5 9 4 11 -3 6 -22 -13 -12 -25 16 -22 22 3 28 0 29 -15
1 -10 -4 -19 -12 -19 -8 0 -17 -4 -20 -10 -11 -18 14 -11 34 9 19 19 20 19 18
0 -1 -10 -4 -19 -7 -19 -4 0 -7 -7 -7 -15 0 -8 4 -15 9 -15 4 0 8 6 8 14 0 7
7 19 16 26 8 8 14 9 13 4 -4 -21 2 -28 11 -14 7 11 12 12 20 4 8 -8 6 -15 -6
-25 -10 -8 -15 -9 -11 -2 5 7 1 10 -10 8 -19 -3 -19 -22 -2 -40 7 -7 8 -5 4 5
-4 11 1 16 16 17 18 2 19 0 7 -15 -11 -15 -11 -15 3 -5 9 7 19 10 22 7 3 -4 4
6 1 21 -4 21 -2 26 10 22 8 -3 17 -2 20 4 2 5 3 4 1 -3 -1 -7 -7 -12 -13 -11
-7 2 -9 -4 -5 -14 5 -14 9 -13 26 8 17 21 19 21 15 4 -1 -11 -12 -28 -23 -38
-14 -13 -10 -12 13 3 17 12 32 18 32 14 0 -3 7 -1 15 6 8 6 19 9 25 5 5 -3 10
-4 10 -1 0 3 -10 10 -21 17 -12 6 -19 7 -16 2 4 -5 0 -10 -8 -10 -8 0 -15 4
-15 9 0 4 5 8 11 8 5 0 8 4 5 8 -2 4 5 9 17 9 15 2 18 0 9 -6 -10 -6 -8 -10 8
-14 14 -4 20 -2 17 6 -2 7 2 18 10 26 13 12 14 11 8 -9 -5 -17 -4 -21 6 -15 9
6 11 2 7 -13 -4 -12 -2 -20 3 -16 5 3 9 12 9 21 0 13 2 14 18 2 15 -13 16 -12
3 3 -7 10 -17 16 -20 13 -4 -2 -8 2 -8 9 0 7 6 13 13 13 7 0 11 -4 8 -9 -8
-13 32 -4 51 12 9 7 15 9 14 4 -4 -21 2 -28 12 -14 9 13 10 12 5 -3 -3 -10 -2
-15 4 -12 5 3 15 -3 21 -14 12 -19 13 -18 31 3 l19 21 -5 -25 c-3 -14 -3 -19
0 -12 3 6 13 12 22 13 11 0 12 2 5 6 -18 7 -16 20 1 20 8 0 15 -3 14 -6 -2
-18 4 -21 25 -11 21 11 21 10 3 -4 -10 -9 -23 -13 -27 -10 -5 3 -9 1 -9 -4 0
-6 7 -13 16 -16 8 -3 12 -2 9 4 -3 6 1 10 9 10 8 0 19 7 24 16 6 11 11 13 16
5 4 -6 2 -11 -4 -11 -6 0 -8 -4 -5 -10 4 -6 13 -5 25 2 15 10 23 9 39 -6 11
-10 18 -26 16 -35 -2 -10 3 -18 10 -18 8 0 12 4 10 8 -3 4 3 10 12 14 10 3 19
1 21 -5 3 -7 9 -7 20 2 9 7 6 -2 -8 -22 -13 -19 -17 -30 -10 -23 13 12 43 6
35 -7 -3 -4 2 -13 10 -20 10 -9 15 -9 15 -1 0 6 -4 11 -9 11 -6 0 -8 9 -6 21
3 15 0 19 -11 15 -9 -3 -12 -2 -9 5 8 13 30 6 31 -9 1 -7 2 -17 3 -23 0 -5 6
-7 13 -3 7 4 8 3 4 -4 -4 -7 -3 -12 3 -12 5 0 8 -9 6 -19 -4 -19 -3 -19 33 1
24 13 32 15 24 5 -9 -11 -10 -17 -2 -22 6 -4 8 -16 4 -27 -5 -17 -3 -19 14
-14 24 8 39 -11 22 -27 -10 -10 -11 -8 -6 8 6 15 4 17 -5 8 -17 -17 -2 -35 21
-23 30 16 34 12 9 -10 -13 -11 -19 -20 -14 -19 6 1 18 1 29 0 15 -1 16 -4 6
-16 -7 -9 -10 -18 -6 -22 3 -3 6 -1 6 5 0 7 5 12 11 12 6 0 8 -9 4 -22 -5 -18
-4 -20 4 -8 6 8 8 23 5 33 -3 9 -1 17 4 17 5 0 9 -17 9 -38 0 -21 2 -42 5 -48
3 -5 4 -16 3 -25 -3 -17 18 -20 32 -4 5 4 1 5 -7 0 -8 -5 -12 -5 -8 0 4 4 3
13 -2 20 -7 8 -5 12 5 12 8 0 11 -5 8 -10 -4 -6 1 -8 11 -4 11 5 15 3 10 -5
-9 -14 -15 -82 -7 -74 4 3 7 16 8 28 1 14 9 22 26 25 23 3 23 3 4 -11 -11 -9
-16 -16 -11 -16 5 0 3 -7 -5 -16 -11 -13 -10 -15 6 -12 10 1 20 -3 23 -11 3
-10 -2 -11 -19 -6 -24 7 -24 7 -4 -10 11 -9 15 -14 8 -11 -15 8 -27 -11 -12
-20 8 -4 7 -9 -2 -16 -10 -6 -6 -7 11 -3 20 6 23 5 13 -6 -14 -14 -18 -33 -5
-25 4 2 14 1 21 -3 10 -6 9 -10 -4 -14 -10 -5 -14 -3 -9 5 4 7 3 8 -5 4 -6 -4
-9 -12 -6 -17 4 -5 1 -9 -4 -9 -6 0 -11 -5 -11 -10 0 -7 7 -7 21 0 11 7 23 9
26 7 2 -3 -5 -10 -16 -17 -12 -6 -19 -15 -16 -20 3 -4 0 -10 -7 -12 -8 -3 -6
-7 4 -11 12 -4 16 -1 13 12 -2 10 3 18 11 18 10 0 11 -4 3 -14 -9 -10 -8 -13
2 -13 8 -1 3 -7 -10 -14 -20 -11 -21 -14 -7 -19 10 -4 15 -3 12 1 -3 5 1 9 9
9 13 0 13 -3 0 -17 -8 -9 -12 -20 -8 -24 13 -13 11 -35 -3 -40 -12 -4 -12 -10
-4 -26 8 -15 6 -24 -9 -39 -12 -12 -15 -23 -10 -28 6 -6 12 -23 15 -39 3 -21
2 -25 -5 -14 -5 8 -8 17 -5 21 2 4 0 10 -4 13 -5 3 -7 -12 -5 -34 4 -35 3 -39
-16 -35 -11 2 -23 -1 -27 -6 -3 -5 -2 -8 3 -7 4 2 8 -1 8 -7 0 -5 -4 -9 -8 -7
-5 1 -6 -2 -3 -7 4 -5 3 -11 -1 -14 -5 -2 -3 -2 4 -1 6 2 14 -3 17 -11 3 -9 0
-12 -10 -8 -19 7 -15 -17 6 -35 13 -11 12 -12 -6 -3 -12 6 -25 7 -30 3 -5 -4
-3 0 4 9 10 13 9 19 -2 28 -11 9 -16 9 -22 0 -4 -7 -3 -9 4 -5 6 3 13 2 17 -3
3 -6 -3 -15 -14 -20 -11 -6 -18 -19 -16 -28 1 -10 -4 -29 -12 -42 -8 -13 -10
-21 -5 -17 6 3 14 1 18 -5 4 -7 3 -9 -4 -5 -6 3 -13 2 -17 -4 -3 -5 0 -10 7
-10 10 0 10 -2 -1 -9 -8 -5 -10 -14 -6 -21 6 -9 4 -11 -5 -5 -10 6 -12 3 -7
-14 3 -14 -1 -26 -16 -37 -16 -12 -17 -15 -4 -11 10 4 18 1 19 -6 0 -7 2 -16
2 -22 1 -5 5 -16 10 -23 7 -12 4 -12 -13 -2 -17 8 -20 15 -12 24 8 9 7 13 -3
13 -12 0 -14 -16 -6 -37 1 -3 2 -9 1 -13 -1 -5 3 -6 8 -3 5 4 13 1 17 -5 5 -8
3 -9 -6 -4 -10 6 -12 1 -8 -18 3 -15 1 -24 -3 -21 -5 3 -9 11 -9 19 0 8 -4 17
-10 20 -7 4 -7 -3 0 -20 13 -33 13 -38 0 -30 -6 3 -7 -1 -3 -10 4 -12 8 -13
13 -5 5 8 9 7 13 -5 4 -9 3 -13 -3 -10 -13 8 -13 -8 0 -21 7 -7 6 -11 -4 -11
-8 0 -13 4 -10 8 2 4 0 10 -5 13 -7 5 -8 -11 -2 -31 1 -2 1 -6 0 -9 0 -4 5
-11 13 -16 9 -6 5 -7 -12 -3 l-25 6 25 -15 c25 -16 25 -16 -15 -11 -22 2 -33
1 -23 -1 9 -3 19 -11 22 -19 3 -10 -3 -12 -24 -10 -16 2 -32 0 -35 -4 -2 -5 3
-8 12 -7 9 0 18 -6 20 -14 4 -12 3 -12 -5 -1 -7 9 -12 10 -16 2 -4 -6 -11 -9
-16 -6 -5 3 -7 -3 -5 -14 2 -11 -3 -22 -11 -25 -9 -3 -12 -10 -9 -16 3 -5 -1
-10 -10 -10 -10 0 -13 5 -9 13 4 7 3 8 -2 4 -5 -5 -9 -16 -9 -25 0 -9 -6 -16
-12 -14 -7 1 -13 -2 -13 -7 0 -6 9 -9 19 -8 11 0 18 4 15 9 -2 4 5 12 16 18
11 6 17 16 14 22 -5 7 -2 9 9 5 11 -4 15 -1 12 13 -4 21 10 36 19 21 4 -5 2
-12 -4 -16 -6 -4 -8 -10 -5 -15 3 -5 -4 -14 -15 -20 -11 -6 -18 -15 -15 -20 3
-6 -1 -7 -10 -4 -10 4 -15 2 -13 -7 2 -7 -2 -13 -9 -14 -6 0 -15 -3 -19 -7 -4
-4 -14 -2 -23 4 -9 7 -5 -1 9 -17 14 -17 21 -27 16 -23 -5 4 -15 0 -23 -10 -8
-9 -12 -12 -9 -5 3 6 3 18 0 26 -5 13 -9 12 -25 -4 -11 -11 -24 -17 -30 -14
-5 4 -8 1 -7 -7 2 -7 -4 -14 -12 -14 -8 -1 -19 -3 -25 -4 -5 -1 -14 -2 -18 -1
-5 1 -6 -3 -2 -9 3 -5 1 -10 -5 -10 -6 0 -8 -5 -5 -11 5 -6 12 -4 20 7 14 20
52 26 52 8 0 -7 -7 -10 -15 -7 -16 7 -64 -41 -54 -53 4 -4 1 -4 -6 0 -10 6
-10 11 -1 22 7 8 7 14 1 14 -5 0 -13 -7 -16 -16 -3 -8 -10 -12 -16 -9 -5 3
-16 3 -22 -2 -7 -4 -21 -8 -30 -9 -10 -1 -23 -2 -29 -3 -6 0 -9 -7 -6 -14 3
-9 -2 -13 -16 -11 -12 1 -26 3 -30 3 -5 1 -6 5 -3 10 3 5 -1 12 -10 15 -8 3
-13 2 -9 -3 15 -26 -21 -49 -42 -26 -4 4 -3 6 2 2 6 -3 12 4 12 16 1 12 -1 17
-5 12 -4 -6 -17 -10 -29 -9 -13 1 -20 -3 -16 -11 2 -7 -1 -16 -8 -21 -8 -4
-10 -3 -5 4 4 7 2 12 -4 12 -6 0 -9 4 -6 9 7 11 -21 8 -31 -4 -4 -4 -1 -5 7 0
12 6 13 5 3 -5 -14 -15 -46 -23 -38 -10 3 5 1 11 -5 15 -6 4 -7 12 -3 18 4 7
0 6 -10 -2 -18 -15 -23 -26 -7 -16 6 3 7 -1 4 -9 -8 -21 -24 -10 -24 15 0 24
-16 25 -29 2 -6 -10 -11 -13 -11 -8 0 6 -5 3 -10 -5 -8 -13 -10 -12 -10 3 0 9
5 17 11 17 5 0 7 5 3 12 -6 9 -9 9 -12 0 -2 -7 -12 -12 -22 -12 -10 0 -20 -5
-22 -12 -3 -7 -7 -5 -11 6 -4 9 -3 15 1 12 4 -2 14 -1 22 5 11 6 3 9 -25 9
-34 1 -37 3 -17 10 12 5 22 15 21 22 0 10 -2 10 -6 1 -2 -7 -13 -13 -24 -13
-10 0 -19 -6 -19 -12 -1 -7 -7 -2 -14 11 -9 16 -15 20 -21 12 -5 -9 -12 -7
-27 8 -10 12 -24 18 -30 15 -6 -4 -8 -3 -4 4 3 6 2 14 -4 17 -6 4 -8 16 -5 28
2 12 2 16 -1 9 -4 -9 -10 -8 -22 6 -10 9 -14 13 -9 8 10 -14 9 -28 -2 -22 -4
3 -17 -4 -27 -15 -15 -17 -16 -22 -4 -29 12 -7 12 -12 -3 -28 -9 -10 -14 -21
-11 -25 3 -3 -2 -4 -13 -2 -10 2 -21 4 -25 4 -4 1 -5 8 -2 16 4 8 1 15 -6 15
-6 0 -9 -4 -5 -9 3 -5 1 -12 -5 -16 -5 -3 -17 -21 -26 -40 -9 -19 -20 -32 -25
-29 -5 3 -9 -2 -9 -10 0 -9 -5 -16 -11 -16 -5 0 -7 5 -4 10 9 15 -5 12 -22 -5
-12 -13 -18 -13 -31 -3 -12 10 -12 7 2 -14 17 -27 17 -27 -3 -23 -12 2 -24 -3
-30 -12 -7 -14 -10 -13 -16 7 -5 17 -9 19 -16 9 -5 -8 -3 -17 4 -22 8 -6 7 -7
-3 -4 -8 2 -23 0 -32 -5 -14 -6 -16 -5 -12 7 3 8 10 13 14 10 14 -9 23 16 11
28 -9 9 -11 7 -5 -8 5 -16 4 -18 -6 -8 -13 12 -40 7 -40 -9 0 -5 6 -6 13 -2 8
5 9 4 2 -5 -6 -6 -30 -12 -53 -13 -28 -1 -42 -6 -42 -15 0 -7 5 -13 11 -13 5
0 8 4 5 8 -10 16 42 11 55 -6 11 -14 11 -15 -1 -4 -16 13 -44 17 -36 4 9 -15
-29 -10 -48 7 -11 9 -16 11 -13 5 10 -17 -21 -26 -43 -14 -26 14 -34 12 -21
-4 8 -10 9 -16 1 -21 -6 -4 -9 -1 -8 7 2 9 -10 13 -39 12 -26 0 -44 5 -47 13
-4 11 -1 11 14 3 14 -7 20 -7 20 0 0 5 -6 10 -12 10 -8 0 -4 8 7 16 12 10 14
14 5 12 -8 -3 -21 2 -28 11 -11 14 -11 13 -2 -6 9 -19 8 -23 -5 -23 -9 0 -13
4 -10 10 3 6 -1 7 -9 4 -9 -3 -13 -11 -9 -18 4 -7 1 -7 -9 1 -8 7 -18 10 -22
6 -4 -4 -11 -1 -17 7 -8 13 -10 13 -19 0 -6 -9 -10 -10 -10 -3 0 17 19 26 33
16 18 -14 40 -10 44 7 4 12 3 12 -5 1 -6 -8 -12 -9 -16 -3 -3 6 -20 9 -36 7
-19 -3 -28 0 -24 6 3 6 -3 13 -15 16 -11 3 -18 10 -14 16 3 6 1 7 -5 3 -6 -3
-15 1 -20 10 -8 15 -10 15 -15 0 -5 -11 -3 -15 5 -10 7 5 8 3 3 -6 -6 -9 -4
-11 5 -5 9 6 11 4 5 -4 -6 -10 -11 -9 -23 3 -14 13 -14 20 -5 36 8 12 9 21 3
25 -6 4 -10 3 -9 -2 4 -21 -2 -25 -14 -10 -16 23 -67 32 -79 15 -7 -10 -8 -10
-7 2 4 37 -1 52 -17 46 -8 -3 -12 -2 -9 3 3 5 1 12 -5 16 -5 3 -10 1 -10 -4 0
-6 -8 -3 -18 7 -11 9 -17 21 -14 26 2 4 8 2 13 -5 5 -8 9 -10 9 -5 0 5 6 4 13
-2 9 -8 17 -8 27 0 13 8 12 9 -2 5 -19 -6 -42 15 -30 28 4 5 1 5 -5 1 -7 -4
-13 -2 -13 3 0 6 -5 10 -11 9 -6 -2 -13 7 -15 19 -3 17 0 21 11 16 13 -4 13
-8 3 -21 -12 -13 -11 -14 9 -2 l22 14 -30 18 c-16 10 -29 22 -29 27 0 5 -8 12
-17 15 -14 6 -13 2 4 -16 l22 -24 -22 -13 c-21 -13 -21 -13 -7 3 13 16 12 20
-3 31 -22 16 -21 24 1 42 15 11 13 12 -13 1 -16 -6 -36 -17 -44 -22 -12 -9
-13 -8 -6 3 6 11 4 13 -8 8 -9 -3 -19 -2 -22 3 -3 4 6 7 20 5 18 -1 29 4 36
19 9 18 8 19 -3 6 -7 -8 -23 -14 -36 -12 -13 2 -29 -1 -36 -7 -10 -8 -16 -7
-25 3 -13 16 -2 28 21 23 7 -2 10 -2 5 0 -4 3 -4 9 -1 15 3 5 -8 3 -24 -6 -30
-15 -51 -8 -37 13 3 5 0 13 -6 17 -8 4 -9 3 -5 -4 4 -7 2 -12 -4 -12 -6 0 -8
-4 -5 -10 3 -5 1 -10 -4 -10 -6 0 -11 5 -11 10 0 6 -3 9 -7 9 -20 -3 -34 2
-29 10 3 5 -1 11 -9 15 -9 3 -12 12 -9 23 3 10 2 14 -3 8 -13 -16 -42 -17 -58
-2 -9 9 -10 18 -4 24 6 6 4 15 -8 24 -16 13 -17 12 -5 -2 11 -14 9 -16 -13
-16 -14 0 -25 4 -25 9 0 5 -6 8 -12 7 -7 -1 -21 1 -30 5 -13 6 -14 11 -6 20 9
10 16 8 30 -6 20 -20 38 -24 38 -7 0 5 -4 7 -10 4 -5 -3 -17 3 -27 14 -14 16
-20 18 -32 8 -11 -9 -10 -3 3 18 17 26 17 28 2 16 -10 -8 -26 -15 -37 -16 -15
-1 -17 1 -6 14 10 12 9 14 -5 9 -20 -8 -18 19 3 34 15 11 9 9 -36 -8 -16 -6
-15 -3 5 14 23 19 17 32 -6 15 -5 -5 -1 0 9 9 17 16 17 17 -3 15 -11 -1 -20
-5 -20 -10 0 -4 -5 -5 -12 -1 -8 5 -2 12 17 20 19 8 23 13 13 14 -19 0 -26 20
-7 20 5 0 7 5 3 11 -5 8 -10 6 -16 -5 -5 -9 -6 -21 -2 -28 5 -7 3 -8 -5 -3 -8
4 -11 19 -8 39 3 17 3 25 0 19 -2 -7 -9 -13 -14 -13 -6 0 -7 5 -4 10 3 6 2 10
-4 10 -5 0 -8 9 -6 20 2 13 -2 20 -11 20 -10 0 -12 -5 -7 -12 12 -21 14 -48 2
-48 -5 0 -7 5 -4 10 3 6 0 10 -7 11 -10 0 -10 2 0 6 6 2 9 10 5 16 -12 20 -14
47 -2 47 5 0 8 -4 5 -8 -3 -5 1 -9 9 -9 13 0 12 3 -1 18 -9 10 -20 16 -24 14
-5 -3 -7 3 -5 12 2 10 4 22 4 26 1 5 6 5 12 1 8 -5 8 -9 -1 -14 -9 -5 -9 -9
-1 -14 6 -4 11 -4 12 1 0 4 2 16 4 26 2 9 -1 15 -5 12 -5 -3 -11 -1 -15 5 -4
6 -10 8 -14 6 -4 -3 -8 4 -8 16 -1 12 3 18 11 15 7 -3 19 -1 27 4 11 7 11 9 1
9 -8 0 -10 5 -6 13 6 9 4 9 -8 -1 -11 -9 -18 -10 -23 -2 -3 6 -10 8 -14 6 -4
-3 -8 1 -8 9 0 13 4 12 19 -2 23 -21 24 -6 0 20 -17 19 -16 20 8 7 19 -10 22
-10 13 0 -6 7 -9 18 -7 25 3 7 1 16 -5 20 -7 4 -8 -1 -4 -12 3 -10 3 -15 -1
-12 -4 4 -9 16 -11 29 -4 21 -4 21 23 5 15 -10 21 -12 15 -5 -10 11 -10 17 0
29 11 14 10 15 -7 1 -13 -10 -17 -11 -12 -2 4 7 3 19 -4 27 -8 10 -8 15 1 20
8 6 7 10 -2 17 -11 7 -11 11 -1 15 6 2 10 9 7 14 -4 5 1 6 10 2 13 -4 14 -8 4
-14 -8 -4 -10 -11 -6 -15 4 -4 2 -13 -4 -21 -9 -9 -8 -13 0 -13 10 0 15 14 9
24 -2 2 6 14 17 27 11 12 15 20 10 17 -6 -4 -18 -1 -27 6 -16 12 -15 14 8 26
l25 14 -23 14 c-13 7 -15 11 -6 8 10 -3 20 0 24 6 4 7 3 8 -4 4 -7 -4 -12 -3
-12 3 0 6 -6 9 -12 7 -7 -1 -10 -1 -5 1 4 3 4 9 1 15 -4 5 4 5 16 -2 12 -7 20
-8 17 -2 -4 5 1 18 9 28 9 10 13 13 9 7 -9 -20 0 -15 21 9 10 12 14 18 8 15
-8 -5 -11 3 -9 23 2 32 18 37 20 8 1 -10 4 -20 7 -24 5 -4 4 32 -1 69 -1 5 -6
5 -13 1 -7 -5 -8 -3 -4 5 6 9 12 9 25 -3 20 -19 31 -20 31 -5 0 5 -4 7 -10 4
-5 -3 -10 3 -10 15 0 14 -4 19 -12 14 -7 -4 -10 -4 -6 0 3 4 10 8 15 8 17 0
43 19 38 28 -3 5 2 13 11 18 11 6 13 11 5 16 -6 4 -11 12 -11 17 0 6 7 3 16
-5 8 -9 20 -14 25 -11 5 4 9 0 9 -7 0 -10 2 -10 9 1 5 8 7 20 5 26 -4 8 4 11
20 10 25 -3 29 1 29 36 0 9 6 16 14 15 7 -1 12 -6 11 -12 -2 -5 -5 -8 -8 -7
-3 1 -7 -10 -8 -25 l-2 -27 13 25 c7 14 18 25 24 25 6 0 15 4 20 9 4 5 3 7 -2
3 -6 -3 -17 3 -24 15 -7 11 -8 17 -3 14 6 -3 13 1 16 10 4 9 9 14 13 11 3 -4
12 -2 20 5 11 9 13 8 11 -2 -2 -7 3 -15 10 -17 7 -3 10 1 6 10 -3 8 0 18 7 23
8 4 10 3 5 -4 -10 -16 5 -15 27 2 11 9 14 16 7 19 -7 4 -7 5 0 4 7 -2 11 -6
10 -11 -1 -5 4 -12 10 -16 9 -5 9 -9 1 -14 -6 -4 -11 -2 -11 3 0 6 -5 11 -11
11 -5 0 -7 -5 -3 -12 4 -6 3 -8 -4 -4 -6 3 -14 1 -18 -5 -4 -8 -3 -9 4 -5 7 4
12 1 12 -6 0 -10 2 -10 9 0 4 8 11 13 15 12 3 0 14 4 24 9 9 6 12 11 5 11 -16
0 -17 30 -2 30 5 0 7 -4 4 -10 -3 -5 -2 -10 4 -10 5 0 13 5 16 10 3 6 11 10
17 10 6 0 6 -6 -2 -15 -7 -9 -10 -18 -7 -22 4 -3 9 2 13 11 3 9 10 13 15 10 5
-3 6 2 3 10 -3 9 -11 16 -17 16 -6 0 -7 3 -4 7 4 3 16 -2 27 -12 20 -18 21
-18 14 0 -5 12 -4 16 3 12 6 -4 17 1 24 11 13 15 12 16 -3 3 -15 -11 -18 -11
-18 0 0 11 -2 11 -10 -1 -5 -8 -10 -10 -10 -5 0 6 5 17 10 25 7 11 10 11 10 2
0 -7 5 -10 10 -7 6 4 8 11 5 16 -3 5 1 6 10 3 11 -5 14 -2 9 9 -3 9 -13 14
-22 10 -14 -4 -15 -3 -2 5 10 8 18 8 27 0 10 -8 12 -7 7 6 -4 9 0 24 9 34 15
17 17 21 17 45 0 7 3 8 8 2 10 -15 29 -16 29 -2 0 7 4 21 9 32 7 18 6 18 -9 6
-9 -7 -14 -18 -10 -25 3 -6 2 -7 -2 -3 -11 9 -16 39 -6 33 7 -5 41 28 38 36
-1 1 0 2 2 1 2 -1 13 2 24 8 10 6 17 7 14 2 -4 -5 0 -10 7 -10 9 0 12 7 8 16
-5 14 -4 14 12 2 13 -11 19 -12 29 -2 9 10 8 11 -4 6 -10 -4 -20 -2 -23 4 -4
6 -14 8 -24 5 -15 -5 -15 -5 1 6 9 6 22 8 27 5 14 -9 12 8 -2 24 -8 8 -8 11
-2 8 13 -8 37 16 27 26 -3 4 -1 7 5 7 6 0 10 -9 9 -19 0 -11 -4 -18 -7 -16 -3
2 -6 -5 -6 -16 0 -22 16 -9 20 17 2 10 8 20 14 22 8 2 10 -3 5 -14 -4 -12 -3
-15 5 -10 7 4 12 16 12 27 0 10 5 19 10 19 5 0 9 -3 9 -7 -5 -29 4 -34 17 -10
9 17 20 25 27 21 7 -4 9 -3 4 1 -4 5 0 16 9 26 13 14 21 16 36 8 11 -6 22 -8
26 -5 3 3 0 6 -7 6 -7 0 -10 4 -7 9 3 4 -6 7 -19 5 -14 -1 -25 2 -25 7 0 6 6
9 13 8 31 -4 48 2 41 14 -6 9 -4 9 8 -1 14 -11 18 -10 28 5 10 16 11 16 6 1
-3 -10 -1 -18 5 -18 6 0 7 -4 4 -10 -3 -5 -2 -10 4 -10 6 0 9 13 7 29 -3 29 2
31 37 16 9 -4 24 -5 32 -1 8 3 19 -2 24 -12 6 -9 11 -12 11 -5 0 16 -21 28
-42 25 -9 -2 -19 1 -22 7 -4 5 3 7 16 3 12 -3 19 -1 15 5 -3 5 0 10 8 10 8 0
13 -3 10 -5 -3 -3 5 -12 16 -20 19 -13 23 -13 37 3 10 10 12 15 6 12 -6 -3
-11 0 -11 8 0 10 5 11 19 4 10 -6 16 -14 13 -20 -4 -5 -1 -8 6 -7 7 2 13 -2
14 -9 0 -6 3 -14 6 -18 4 -3 6 4 5 16 -1 16 6 23 22 25 16 3 21 0 16 -8 -4 -7
-3 -8 4 -4 9 5 7 15 -4 34 -14 23 -14 24 -1 8 10 -11 22 -16 33 -12z m-73 -4
c4 0 5 5 2 10 -10 17 2 11 16 -7 7 -10 9 -15 5 -11 -5 4 -14 4 -20 -2 -8 -6
-16 -2 -25 13 -11 18 -11 20 0 10 7 -7 17 -13 22 -13z m-72 -11 c8 -17 8 -20
-2 -17 -7 2 -13 12 -15 21 -3 23 3 21 17 -4z m399 -48 c0 -4 -6 -8 -14 -8 -8
0 -12 6 -9 14 5 13 23 9 23 -6z m-1220 -1 c-20 -13 -33 -13 -25 0 3 6 14 10
23 10 15 0 15 -2 2 -10z m559 -46 c-12 -12 -27 -20 -35 -17 -10 4 -11 8 -1 18
7 7 14 9 15 4 2 -6 10 -5 18 2 12 9 12 15 2 28 -12 14 -11 14 5 2 17 -13 17
-15 -4 -37z m-567 7 c10 -13 10 -14 -1 -5 -18 16 -55 6 -41 -11 8 -10 8 -15
-1 -21 -8 -4 -9 -3 -5 4 4 7 3 12 -3 12 -5 0 -9 8 -8 19 1 23 42 25 59 2z
m3299 -28 c13 -16 12 -17 -3 -4 -17 13 -22 21 -14 21 2 0 10 -8 17 -17z
m-1896 -31 c-3 -3 -11 0 -18 7 -9 10 -8 11 6 5 10 -3 15 -9 12 -12z m-1495 -9
c0 -3 -7 -2 -16 1 -12 5 -14 1 -9 -17 5 -19 4 -20 -5 -4 -13 21 -5 38 15 30 8
-3 15 -7 15 -10z m1963 -67 c-7 -27 -11 -29 -21 -9 -10 18 -9 21 6 19 9 -2 16
-6 15 -10z m1372 -46 c10 -11 16 -20 13 -20 -3 0 -13 9 -23 20 -10 11 -16 20
-13 20 3 0 13 -9 23 -20z m-1154 -23 c-10 -9 -11 -8 -5 6 3 10 9 15 12 12 3
-3 0 -11 -7 -18z m-2379 -1 c7 4 8 2 4 -5 -9 -13 -26 -5 -25 12 0 9 2 8 6 -1
2 -6 10 -9 15 -6z m-35 -18 c-3 -8 -6 -5 -6 6 -1 11 2 17 5 13 3 -3 4 -12 1
-19z m2564 -55 c13 -16 12 -17 -3 -4 -10 7 -18 15 -18 17 0 8 8 3 21 -13z m85
-55 c3 -4 -1 -5 -10 -4 -8 1 -18 5 -22 8 -3 4 1 5 10 4 8 -1 18 -5 22 -8z
m740 -111 c4 -7 3 -9 -1 -4 -5 4 -18 1 -30 -7 -22 -14 -57 -5 -42 11 5 4 12 1
17 -7 8 -13 14 -8 12 10 -1 11 38 8 44 -3z m-3616 -21 c0 -3 -4 -8 -10 -11 -5
-3 -10 -1 -10 4 0 6 5 11 10 11 6 0 10 -2 10 -4z m2973 -11 c-3 -9 -8 -14 -10
-11 -3 3 -2 9 2 15 9 16 15 13 8 -4z m-2500 -46 c-8 -8 -13 -7 -18 2 -5 8 -4
10 3 5 7 -4 12 -2 12 5 0 7 3 9 7 6 4 -4 2 -12 -4 -18z m3017 -14 c0 -12 -19
-12 -23 0 -4 9 -1 12 9 8 7 -3 14 -7 14 -8z m-3054 -17 c3 -4 -1 -5 -10 -4 -8
1 -18 5 -22 8 -3 4 1 5 10 4 8 -1 18 -5 22 -8z m3009 -48 c3 -6 -1 -7 -9 -4
-18 7 -21 14 -7 14 6 0 13 -4 16 -10z m-405 -54 c-7 -7 -13 -7 -20 0 -6 6 -3
10 10 10 13 0 16 -4 10 -10z m-3195 -76 c-3 -5 -10 -10 -16 -10 -5 0 -9 5 -9
10 0 6 7 10 16 10 8 0 12 -4 9 -10z m3605 -94 c0 -2 -8 -10 -17 -17 -16 -13
-17 -12 -4 4 13 16 21 21 21 13z m-3615 -45 c-6 -5 -25 10 -25 20 0 5 6 4 14
-3 8 -7 12 -15 11 -17z m3249 21 c3 -5 -1 -9 -9 -9 -8 0 -12 4 -9 9 3 4 7 8 9
8 2 0 6 -4 9 -8z m-2844 -8 c0 -8 -19 -13 -24 -6 -3 5 1 9 9 9 8 0 15 -2 15
-3z m3198 -59 c-3 -3 -9 2 -12 12 -6 14 -5 15 5 6 7 -7 10 -15 7 -18z m-3256
-142 c-6 -2 -9 -10 -6 -15 4 -7 2 -8 -5 -4 -13 9 -5 26 12 25 9 0 8 -2 -1 -6z
m-367 -63 c3 -8 3 -11 -1 -8 -8 9 -33 -14 -27 -25 3 -4 10 -3 17 2 9 7 12 4
12 -13 0 -21 -5 -23 -46 -17 -3 1 -6 23 -6 49 0 46 1 48 23 38 12 -6 25 -18
28 -26z m20 30 c3 -5 1 -10 -4 -10 -6 0 -11 5 -11 10 0 6 2 10 4 10 3 0 8 -4
11 -10z m3197 -15 c2 3 5 -2 5 -10 0 -12 -3 -12 -16 -2 -12 10 -14 9 -8 -5 3
-10 2 -18 -3 -18 -14 0 -21 18 -10 25 6 4 7 12 3 18 -5 8 -2 8 9 0 8 -7 17
-11 20 -8z m-86 -100 c-3 -8 -1 -15 4 -15 6 0 5 -9 -2 -20 -7 -11 -17 -20 -22
-20 -4 0 -4 6 3 13 6 8 9 23 6 35 -2 12 1 22 7 22 5 0 8 -7 4 -15z m475 2 c-1
-12 -15 -9 -19 4 -3 6 1 10 8 8 6 -3 11 -8 11 -12z m-3581 -21 c0 -3 -4 -8
-10 -11 -5 -3 -10 -1 -10 4 0 6 5 11 10 11 6 0 10 -2 10 -4z m-18 -72 c-4 -20
-2 -25 8 -19 9 6 11 4 5 -5 -6 -10 -11 -9 -21 5 -10 14 -11 22 -3 32 16 18 17
17 11 -13z m3109 -27 c-10 -9 -11 -8 -5 6 3 10 9 15 12 12 3 -3 0 -11 -7 -18z
m-3084 -23 c-3 -3 -12 -4 -19 -1 -8 3 -5 6 6 6 11 1 17 -2 13 -5z m3073 -3 c0
-6 -5 -13 -10 -16 -8 -5 -7 -12 2 -23 12 -15 11 -16 -5 -3 -12 9 -14 17 -7 26
5 6 7 15 3 18 -3 4 -1 7 5 7 7 0 12 -4 12 -9z m20 -21 c0 -5 -5 -10 -11 -10
-5 0 -7 5 -4 10 3 6 8 10 11 10 2 0 4 -4 4 -10z m-3053 -64 c4 -4 2 -6 -6 -4
-7 2 -16 -3 -18 -9 -3 -7 2 -13 11 -13 9 0 14 -8 13 -20 -1 -17 -3 -18 -15 -6
-20 20 -24 65 -6 62 7 -1 17 -6 21 -10z m3404 -39 c-10 -9 -11 -8 -5 6 3 10 9
15 12 12 3 -3 0 -11 -7 -18z m35 -24 c1 -21 -1 -23 -10 -11 -6 8 -18 13 -26
11 -8 -2 -5 2 8 10 12 7 20 16 17 20 -3 4 -2 5 2 2 4 -3 8 -18 9 -32z m-2832
-131 c3 -5 -1 -9 -9 -9 -8 0 -12 4 -9 9 3 4 7 8 9 8 2 0 6 -4 9 -8z m66 -25
c0 -6 -7 -2 -15 9 -14 19 -14 19 -15 0 0 -11 -3 -17 -6 -13 -4 3 -4 14 0 23 5
13 9 14 21 4 8 -7 15 -17 15 -23z m120 -77 c0 -5 -2 -10 -4 -10 -3 0 -8 5 -11
10 -3 6 -1 10 4 10 6 0 11 -4 11 -10z m2557 -12 c-3 -8 -6 -5 -6 6 -1 11 2 17
5 13 3 -3 4 -12 1 -19z m-2454 -3 c-3 -9 -8 -14 -10 -11 -3 3 -2 9 2 15 9 16
15 13 8 -4z m2456 -44 c7 -5 3 -15 -13 -30 l-24 -23 2 25 c0 14 5 23 10 20 4
-3 5 5 1 18 -4 17 -3 20 3 10 5 -7 15 -16 21 -20z m-460 -14 c-2 -1 -13 -9
-24 -17 -19 -14 -19 -14 -6 3 7 9 18 17 24 17 6 0 8 -1 6 -3z m-909 -47 c5 8
9 6 12 -7 4 -13 0 -19 -13 -19 -10 0 -15 5 -12 10 4 5 -1 7 -12 2 -16 -6 -16
-4 -4 10 9 11 14 13 17 4 3 -9 6 -10 12 0z m794 -20 c-13 -20 -20 -26 -26 -17
-4 7 1 19 15 29 30 24 31 23 11 -12z m481 -40 c-3 -5 -12 -10 -18 -10 -7 0 -6
4 3 10 19 12 23 12 15 0z m-1374 -47 c-11 -5 -11 -7 0 -15 11 -8 11 -9 -1 -5
-8 2 -15 10 -16 18 -1 23 8 31 20 19 8 -9 8 -14 -3 -17z m-754 -7 c3 -3 3 -9
2 -15 -3 -6 -16 -2 -34 9 l-30 21 29 -5 c16 -3 31 -7 33 -10z m1503 3 c0 -5 5
-7 12 -3 7 4 8 3 4 -5 -6 -9 -11 -9 -21 -1 -9 8 -15 8 -20 0 -8 -13 -25 -13
-25 1 0 5 4 8 9 4 5 -3 12 -1 16 5 8 13 25 13 25 -1z m604 -24 c-19 -30 -18
-29 -35 -8 -10 11 -10 14 -1 9 7 -4 12 -2 12 4 0 6 4 9 9 5 5 -3 12 -1 16 5 3
5 8 10 11 10 2 0 -3 -11 -12 -25z m-808 -4 c0 -11 -4 -17 -8 -15 -4 3 -8 12
-8 20 0 8 4 14 8 14 4 0 8 -9 8 -19z m-1931 -1 c3 -6 -1 -7 -9 -4 -18 7 -21
14 -7 14 6 0 13 -4 16 -10z m1871 -20 c0 -12 -4 -16 -9 -11 -5 5 -6 14 -3 20
10 15 12 14 12 -9z m-1136 -26 c0 -2 -9 -4 -20 -4 -11 0 -20 4 -20 9 0 5 9 7
20 4 11 -3 20 -7 20 -9z m560 0 c0 -8 -19 -13 -24 -6 -3 5 1 9 9 9 8 0 15 -2
15 -3z m-1182 -32 c2 -28 0 -27 -16 4 -8 16 -8 21 1 21 7 0 14 -12 15 -25z
m622 14 c0 -3 -4 -8 -10 -11 -5 -3 -10 -1 -10 4 0 6 5 11 10 11 6 0 10 -2 10
-4z m100 -56 c0 -5 -2 -10 -4 -10 -3 0 -8 5 -11 10 -3 6 -1 10 4 10 6 0 11 -4
11 -10z m195 -20 c3 -6 -1 -7 -9 -4 -18 7 -21 14 -7 14 6 0 13 -4 16 -10z
m1405 -94 c0 -3 -4 -8 -10 -11 -5 -3 -10 -1 -10 4 0 6 5 11 10 11 6 0 10 -2
10 -4z m-2048 -88 c-8 -8 -9 -4 -5 13 4 13 8 18 11 10 2 -7 -1 -18 -6 -23z
m1864 -31 c-3 -12 -5 -23 -5 -25 -1 -2 -6 0 -11 3 -8 5 -7 11 0 20 7 8 8 20 4
26 -4 8 -3 9 4 5 7 -4 10 -17 8 -29z m44 8 c0 -2 -6 -5 -13 -8 -8 -3 -14 1
-14 8 0 7 6 11 14 8 7 -3 13 -6 13 -8z m-617 -30 c9 2 17 -1 17 -6 0 -5 5 -9
11 -9 5 0 7 6 3 13 -6 8 -3 8 9 -1 9 -8 21 -11 27 -7 5 3 10 4 10 1 0 -3 -9
-10 -20 -16 -15 -8 -26 -7 -44 5 -17 11 -26 13 -31 5 -5 -8 -11 -8 -21 1 -17
14 -8 34 9 21 7 -5 20 -8 30 -7z m-1176 -2 c-4 -3 -1 -13 6 -21 11 -13 9 -14
-10 -1 -16 9 -19 16 -10 21 15 9 23 10 14 1z m37 -1 c3 -5 -1 -9 -9 -9 -8 0
-12 4 -9 9 3 4 7 8 9 8 2 0 6 -4 9 -8z m1430 0 c2 -4 -5 -9 -17 -9 -17 -2 -19
0 -7 7 18 12 18 12 24 2z m95 -4 c4 6 11 5 19 -4 11 -12 9 -13 -10 -11 -12 2
-23 9 -24 16 -2 8 -1 8 3 0 3 -7 8 -8 12 -1z m-1455 -73 c-4 -8 -8 -15 -10
-15 -2 0 -4 7 -4 15 0 8 4 15 10 15 5 0 7 -7 4 -15z m79 -8 c4 3 7 -1 7 -10 0
-22 -3 -21 -26 5 -12 14 -13 18 -3 10 9 -6 19 -9 22 -5z m527 -39 c0 -19 -16
-5 -17 14 -2 18 0 20 7 8 5 -8 10 -18 10 -22z m-395 -6 c-3 -3 -11 0 -18 7 -9
10 -8 11 6 5 10 -3 15 -9 12 -12z m106 -7 c5 4 9 1 9 -4 0 -6 -10 -9 -22 -7
-13 2 -28 -1 -35 -6 -7 -6 -14 -5 -19 3 -4 8 -3 9 4 5 7 -4 12 -2 12 4 0 7 7
10 15 6 10 -3 15 1 16 12 1 16 2 16 6 -1 2 -9 9 -15 14 -12z"/>
<path d="M3183 3745 c0 -8 4 -12 9 -9 5 3 6 10 3 15 -9 13 -12 11 -12 -6z"/>
<path d="M3334 3728 c-4 -7 -3 -8 4 -4 7 4 12 2 12 -3 0 -6 5 -11 10 -11 15 0
12 17 -5 23 -8 4 -17 1 -21 -5z"/>
<path d="M3030 3720 c0 -5 5 -10 11 -10 5 0 7 5 4 10 -3 6 -8 10 -11 10 -2 0
-4 -4 -4 -10z"/>
<path d="M3330 3700 c0 -5 5 -10 11 -10 5 0 7 5 4 10 -3 6 -8 10 -11 10 -2 0
-4 -4 -4 -10z"/>
<path d="M3430 3684 c0 -2 10 -8 21 -15 17 -8 20 -8 17 2 -4 11 -38 23 -38 13z"/>
<path d="M3485 3661 c3 -5 0 -11 -7 -13 -7 -3 -5 -7 6 -11 9 -4 15 -3 11 2 -3
5 0 11 7 13 7 3 5 7 -6 11 -9 4 -15 3 -11 -2z"/>
<path d="M2846 3598 c3 -4 9 -8 15 -8 5 0 9 4 9 8 0 5 -7 9 -15 9 -8 0 -12 -4
-9 -9z"/>
<path d="M3530 3580 c0 -5 5 -10 11 -10 5 0 7 5 4 10 -3 6 -8 10 -11 10 -2 0
-4 -4 -4 -10z"/>
<path d="M3620 3521 c0 -7 -4 -9 -10 -6 -6 4 -7 -1 -3 -11 6 -15 7 -15 15 1 6
9 7 19 4 22 -3 4 -6 1 -6 -6z"/>
<path d="M2675 3321 c-3 -5 -1 -12 5 -16 7 -4 7 -12 0 -25 -13 -24 -13 -30 1
-30 5 0 8 4 4 9 -3 5 2 17 11 25 9 9 11 16 4 16 -6 0 -8 5 -5 10 4 6 11 7 17
4 7 -4 8 -2 4 4 -9 14 -33 16 -41 3z"/>
<path d="M3675 3300 c-3 -5 -1 -10 4 -10 6 0 11 5 11 10 0 6 -2 10 -4 10 -3 0
-8 -4 -11 -10z"/>
<path d="M2776 3202 c-3 -5 1 -9 9 -9 8 0 15 4 15 9 0 4 -4 8 -9 8 -6 0 -12
-4 -15 -8z"/>
<path d="M3696 3182 c-3 -5 1 -9 9 -9 8 0 12 4 9 9 -3 4 -7 8 -9 8 -2 0 -6 -4
-9 -8z"/>
<path d="M3695 3140 c-3 -5 -1 -10 4 -10 6 0 11 5 11 10 0 6 -2 10 -4 10 -3 0
-8 -4 -11 -10z"/>
<path d="M3675 3091 c-3 -5 -2 -12 3 -15 5 -3 9 1 9 9 0 17 -3 19 -12 6z"/>
<path d="M3605 2900 c-16 -7 -17 -9 -3 -9 9 -1 20 4 23 9 7 11 7 11 -20 0z"/>
<path d="M3431 2866 c-9 -10 -8 -16 4 -26 10 -9 15 -9 15 -1 0 6 -5 11 -11 11
-8 0 -8 5 1 15 7 8 10 15 7 15 -2 0 -10 -6 -16 -14z"/>
<path d="M3547 2816 c-4 -10 -1 -13 9 -9 15 6 19 23 5 23 -5 0 -11 -7 -14 -14z"/>
<path d="M1856 2995 c-9 -26 -7 -32 5 -12 6 10 9 21 6 23 -2 3 -7 -2 -11 -11z"/>
<path d="M1524 2991 c4 -5 1 -11 -6 -13 -9 -3 -9 -6 0 -12 7 -4 12 -2 12 4 0
6 5 8 13 4 8 -5 8 -2 -2 9 -14 18 -26 23 -17 8z"/>
<path d="M1640 2980 c-9 -6 -10 -10 -3 -10 6 0 15 5 18 10 8 12 4 12 -15 0z"/>
<path d="M1735 2980 c3 -5 8 -10 11 -10 2 0 4 5 4 10 0 6 -5 10 -11 10 -5 0
-7 -4 -4 -10z"/>
<path d="M1564 2964 c-18 -14 -18 -15 4 -4 12 6 22 13 22 15 0 8 -5 6 -26 -11z"/>
<path d="M1450 2958 c0 -4 4 -8 9 -8 6 0 12 4 15 8 3 5 -1 9 -9 9 -8 0 -15 -4
-15 -9z"/>
<path d="M2053 2929 c-2 -23 3 -25 10 -4 4 8 3 16 -1 19 -4 3 -9 -4 -9 -15z"/>
<path d="M2216 2812 c-3 -5 1 -9 9 -9 8 0 12 4 9 9 -3 4 -7 8 -9 8 -2 0 -6 -4
-9 -8z"/>
<path d="M2585 2790 c-4 -6 -12 -7 -18 -4 -7 4 -9 3 -4 -1 11 -13 47 -17 47
-6 0 15 -18 23 -25 11z"/>
<path d="M1161 2766 c-14 -17 -1 -28 19 -16 11 7 12 12 4 20 -8 8 -14 7 -23
-4z"/>
<path d="M2775 2749 c-5 -7 -4 -10 3 -5 5 3 12 0 15 -6 3 -10 8 -10 22 2 17
14 17 13 11 -10 -6 -21 -5 -22 4 -7 15 24 29 21 24 -5 -4 -21 -4 -21 5 -3 13
29 -12 54 -38 38 -12 -8 -22 -8 -29 -1 -6 6 -12 6 -17 -3z"/>
<path d="M1156 2713 c-6 -14 -5 -15 5 -6 7 7 10 15 7 18 -3 3 -9 -2 -12 -12z"/>
<path d="M2256 2722 c-3 -5 1 -9 9 -9 8 0 12 4 9 9 -3 4 -7 8 -9 8 -2 0 -6 -4
-9 -8z"/>
<path d="M2456 2718 c3 -5 10 -6 15 -3 13 9 11 12 -6 12 -8 0 -12 -4 -9 -9z"/>
<path d="M2913 2705 c0 -8 4 -12 9 -9 5 3 6 10 3 15 -9 13 -12 11 -12 -6z"/>
<path d="M1104 2681 c3 -5 -1 -14 -9 -21 -8 -7 -15 -17 -15 -23 0 -6 7 -2 15
9 8 11 15 14 15 7 0 -7 5 -13 11 -13 8 0 8 4 0 14 -9 11 -9 15 1 18 8 3 6 7
-6 11 -9 4 -15 3 -12 -2z"/>
<path d="M1095 2621 c-3 -5 -2 -12 3 -15 5 -3 9 1 9 9 0 17 -3 19 -12 6z"/>
<path d="M3055 2610 c6 -10 4 -12 -8 -7 -10 3 -17 2 -17 -3 0 -13 27 -13 35
-1 3 5 0 13 -6 17 -8 5 -9 3 -4 -6z"/>
<path d="M995 2489 c-4 -6 -5 -12 -2 -15 2 -3 7 2 10 11 7 17 1 20 -8 4z"/>
<path d="M3115 2490 c3 -5 8 -10 11 -10 2 0 4 5 4 10 0 6 -5 10 -11 10 -5 0
-7 -4 -4 -10z"/>
<path d="M806 2469 c2 -4 -2 -10 -8 -12 -8 -4 -7 -6 3 -6 9 -1 19 5 22 12 3 8
-1 14 -9 14 -7 0 -11 -4 -8 -8z"/>
<path d="M642 2341 c-11 -7 -10 -9 3 -14 9 -4 14 -3 10 2 -3 5 1 12 7 14 7 3
9 6 3 6 -5 0 -16 -3 -23 -8z"/>
<path d="M629 2317 c-1 -4 -6 -47 -5 -47 1 0 9 9 18 19 14 16 14 20 2 25 -8 3
-14 4 -15 3z"/>
<path d="M3273 2078 c3 -9 1 -19 -6 -21 -7 -3 -2 -4 10 -4 18 1 20 4 10 17
-19 25 -20 26 -14 8z"/>
<path d="M3270 1990 c0 -5 5 -10 11 -10 5 0 7 5 4 10 -3 6 -8 10 -11 10 -2 0
-4 -4 -4 -10z"/>
<path d="M470 1766 c7 -7 13 -7 20 0 6 6 3 10 -10 10 -13 0 -16 -4 -10 -10z"/>
<path d="M3130 1638 c0 -12 3 -18 7 -14 11 10 12 36 2 36 -5 0 -9 -10 -9 -22z"/>
<path d="M3119 1608 c-5 -16 -4 -46 2 -42 4 2 7 13 6 24 -1 17 -5 26 -8 18z"/>
<path d="M609 1450 c9 -9 18 -12 20 -5 2 5 8 13 13 16 5 3 -4 6 -20 6 -26 0
-27 -2 -13 -17z"/>
<path d="M755 1342 c-2 -3 -2 -8 1 -13 5 -9 34 -1 34 10 0 8 -27 10 -35 3z"/>
<path d="M861 1284 c0 -11 3 -14 6 -6 3 7 2 16 -1 19 -3 4 -6 -2 -5 -13z"/>
<path d="M919 1295 c-1 -3 -2 -8 -3 -12 -1 -5 -5 -15 -10 -23 -7 -12 -6 -13 4
-3 13 12 23 43 14 43 -2 0 -5 -2 -5 -5z"/>
<path d="M996 1258 c3 -5 10 -6 15 -3 13 9 11 12 -6 12 -8 0 -12 -4 -9 -9z"/>
<path d="M1095 1211 c-3 -5 -2 -12 3 -15 5 -3 9 1 9 9 0 17 -3 19 -12 6z"/>
<path d="M2890 1099 c0 -5 5 -7 10 -4 6 3 10 8 10 11 0 2 -4 4 -10 4 -5 0 -10
-5 -10 -11z"/>
<path d="M2171 1082 c-1 -7 -6 -10 -13 -6 -7 3 1 -7 17 -23 29 -28 45 -33 45
-12 0 5 -6 9 -13 9 -8 0 -19 10 -25 23 -6 12 -11 16 -11 9z"/>
<path d="M1171 1047 c2 -2 11 -8 20 -15 12 -9 16 -9 16 1 0 7 -9 14 -20 14
-11 1 -18 1 -16 0z"/>
<path d="M2039 1037 c5 -5 7 -17 4 -26 -5 -13 -2 -13 15 3 26 23 28 28 5 19
-10 -4 -14 -2 -10 4 3 5 -1 10 -9 10 -9 0 -11 -4 -5 -10z"/>
<path d="M2230 1040 c0 -5 5 -10 11 -10 5 0 7 -4 4 -10 -3 -6 1 -7 9 -4 13 5
13 8 1 20 -16 16 -25 18 -25 4z"/>
<path d="M2770 1019 c0 -5 5 -7 10 -4 6 3 10 8 10 11 0 2 -4 4 -10 4 -5 0 -10
-5 -10 -11z"/>
<path d="M2460 966 c0 -8 4 -17 9 -20 5 -4 7 3 4 14 -6 23 -13 26 -13 6z"/>
<path d="M1333 955 c0 -8 4 -12 9 -9 5 3 6 10 3 15 -9 13 -12 11 -12 -6z"/>
<path d="M1950 962 c0 -6 -9 -8 -20 -5 -11 3 -20 3 -20 0 0 -9 38 -15 50 -7 9
5 9 9 1 14 -6 4 -11 3 -11 -2z"/>
<path d="M2650 959 c0 -5 5 -7 10 -4 6 3 10 8 10 11 0 2 -4 4 -10 4 -5 0 -10
-5 -10 -11z"/>
<path d="M1853 893 c-7 -2 -13 -9 -13 -15 0 -7 5 -7 13 1 8 6 18 7 22 3 5 -4
5 -1 1 6 -4 6 -8 12 -9 11 -1 0 -8 -3 -14 -6z"/>
<path d="M1659 888 c-5 -18 -6 -38 -1 -34 7 8 12 36 6 36 -2 0 -4 -1 -5 -2z"/>
<path d="M1696 873 c-6 -14 -5 -15 5 -6 7 7 10 15 7 18 -3 3 -9 -2 -12 -12z"/>
<path d="M1725 881 c-3 -5 -2 -12 3 -15 5 -3 9 1 9 9 0 17 -3 19 -12 6z"/>
<path d="M1532 851 c-6 -3 -8 -11 -4 -17 9 -13 34 -12 39 2 5 14 -20 25 -35
15z"/>
<path d="M1596 833 c17 -12 34 -9 34 7 0 4 -11 7 -25 6 -22 -1 -23 -2 -9 -13z"/>
<path d="M23 1808 c-2 -16 1 -17 13 -8 17 15 17 17 1 23 -8 3 -14 -3 -14 -15z"/>
<path d="M26 1767 c3 -10 9 -15 12 -12 3 3 0 11 -7 18 -10 9 -11 8 -5 -6z"/>
<path d="M2325 4160 c-3 -5 -2 -10 4 -10 5 0 13 5 16 10 3 6 2 10 -4 10 -5 0
-13 -4 -16 -10z"/>
<path d="M3470 4140 c0 -5 0 -12 0 -15 0 -12 14 -4 16 10 1 8 -2 15 -7 15 -5
0 -9 -4 -9 -10z"/>
<path d="M3995 4130 c-4 -6 -11 -7 -17 -4 -7 4 -8 2 -4 -5 6 -9 11 -9 22 0 14
11 18 19 10 19 -3 0 -8 -5 -11 -10z"/>
<path d="M3630 4084 c0 -2 9 -8 20 -14 15 -8 18 -8 14 3 -4 11 -34 21 -34 11z"/>
<path d="M4090 4076 c0 -2 7 -7 16 -10 8 -3 12 -2 9 4 -6 10 -25 14 -25 6z"/>
<path d="M2693 4055 c0 -8 4 -12 9 -9 5 3 6 10 3 15 -9 13 -12 11 -12 -6z"/>
<path d="M2266 4011 c-3 -5 1 -11 9 -14 9 -4 12 -1 8 9 -6 16 -10 17 -17 5z"/>
<path d="M2641 4012 c-1 -7 -5 -10 -11 -7 -15 9 -12 -1 4 -14 10 -9 17 -7 27
6 8 9 9 14 2 10 -6 -4 -14 -1 -16 5 -4 10 -6 10 -6 0z"/>
<path d="M2575 3980 c3 -5 8 -10 11 -10 2 0 4 5 4 10 0 6 -5 10 -11 10 -5 0
-7 -4 -4 -10z"/>
<path d="M2604 3963 c4 -8 1 -13 -8 -13 -17 0 -22 -15 -8 -24 21 -12 37 24 18
41 -5 5 -6 3 -2 -4z"/>
<path d="M2195 3900 c3 -5 8 -10 11 -10 2 0 4 5 4 10 0 6 -5 10 -11 10 -5 0
-7 -4 -4 -10z"/>
<path d="M3935 3859 c-8 -12 0 -22 20 -25 8 -1 13 2 9 7 -3 5 -10 6 -16 3 -7
-5 -9 -1 -5 9 7 19 2 23 -8 6z"/>
<path d="M2370 3740 c0 -5 5 -10 11 -10 5 0 7 5 4 10 -3 6 -8 10 -11 10 -2 0
-4 -4 -4 -10z"/>
<path d="M4055 3699 c-4 -6 -5 -12 -2 -15 2 -3 7 2 10 11 7 17 1 20 -8 4z"/>
<path d="M2327 3650 c-9 -11 -13 -20 -8 -20 4 0 16 9 26 20 10 11 14 20 9 20
-5 0 -17 -9 -27 -20z"/>
<path d="M4096 3553 c-6 -14 -5 -15 5 -6 7 7 10 15 7 18 -3 3 -9 -2 -12 -12z"/>
<path d="M4895 3531 c-8 -25 -34 -35 -42 -15 -4 11 -8 12 -13 4 -5 -8 -12 -6
-25 7 -17 17 -18 17 -12 1 5 -14 1 -18 -18 -18 -13 0 -26 -4 -30 -9 -5 -9 -16
-8 -65 4 -8 2 -19 4 -23 4 -5 1 -6 5 -3 9 3 5 -1 9 -9 9 -8 0 -12 -4 -9 -9 3
-4 -2 -8 -11 -8 -10 0 -13 5 -9 12 4 7 3 8 -4 4 -6 -4 -9 -13 -6 -21 5 -11 11
-12 24 -5 13 7 21 6 26 -2 4 -7 3 -8 -4 -4 -7 4 -12 3 -12 -3 0 -12 -27 -8
-42 7 -23 23 -28 12 -6 -13 11 -13 26 -22 31 -18 6 3 7 1 3 -6 -6 -9 -11 -9
-23 1 -9 7 -19 13 -22 13 -3 0 -5 3 -4 7 2 4 -6 6 -16 5 -10 0 -18 -7 -18 -14
0 -6 4 -10 8 -7 4 2 11 -1 15 -7 4 -7 3 -9 -4 -5 -6 3 -15 -1 -20 -10 -8 -15
-10 -15 -15 0 -4 10 -3 15 3 11 6 -3 7 1 3 10 -4 13 -8 14 -14 4 -6 -10 -11
-10 -26 1 -13 10 -15 10 -6 1 6 -7 10 -19 9 -25 -2 -6 -1 -8 1 -3 3 4 9 7 15
7 6 0 3 -9 -7 -20 -10 -11 -22 -17 -26 -14 -5 3 -9 0 -9 -5 0 -6 -5 -11 -11
-11 -8 0 -7 5 2 16 15 19 21 47 8 38 -5 -3 -7 -10 -4 -15 4 -5 2 -9 -2 -9 -5
0 -17 -18 -27 -40 -10 -22 -21 -38 -25 -36 -4 3 -8 -5 -8 -16 -1 -12 -7 -24
-14 -28 -8 -6 -8 -9 0 -14 6 -4 11 -2 11 4 0 6 4 8 10 5 5 -3 8 0 5 7 -7 18
30 75 48 75 9 0 14 -4 11 -9 -3 -5 -10 -5 -16 -2 -8 5 -9 1 -5 -10 4 -10 3
-15 -3 -11 -9 6 -14 -8 -11 -29 1 -4 -3 -14 -9 -20 -5 -7 -6 -17 -2 -21 4 -5
1 -5 -5 -1 -16 9 -17 -20 -1 -30 7 -4 8 -3 4 4 -4 7 -3 12 2 12 13 0 12 -53 0
-61 -5 -3 -2 -9 7 -12 9 -4 13 -3 10 3 -3 6 -2 10 3 10 6 0 13 -7 16 -16 3 -8
2 -12 -3 -9 -5 3 -12 1 -16 -5 -6 -10 8 -15 30 -10 6 1 4 -4 -2 -11 -19 -19
-16 -34 4 -18 15 12 16 12 11 -3 -8 -19 18 -33 28 -16 5 7 2 8 -6 3 -9 -6 -11
-4 -5 4 5 9 11 9 17 3 6 -6 18 -8 27 -5 13 4 14 3 1 -5 -8 -6 -18 -8 -23 -5
-5 3 -3 -4 4 -14 6 -11 21 -19 33 -18 11 1 26 0 31 -4 26 -15 106 -20 123 -8
8 6 12 5 12 -4 0 -11 2 -11 9 1 6 8 7 18 4 24 -4 5 1 7 10 3 10 -3 17 -3 17 1
0 5 7 17 15 28 9 10 14 13 13 5 -2 -7 5 -15 15 -16 11 -2 22 -7 25 -11 4 -4
-1 -4 -11 -1 -11 4 -16 3 -12 -4 4 -6 13 -8 20 -5 7 2 18 -1 25 -7 10 -10 10
-7 0 11 -6 13 -9 26 -6 30 3 3 6 1 6 -4 0 -5 9 -10 21 -11 18 -2 19 0 7 15
-11 15 -11 16 4 4 13 -10 17 -10 21 0 4 11 6 10 6 0 1 -7 6 -10 13 -6 6 4 9 3
5 -2 -3 -5 6 -15 20 -21 24 -12 25 -12 9 6 -13 14 -14 21 -5 27 7 4 10 3 6 -3
-4 -6 0 -14 9 -17 8 -3 12 -2 9 4 -3 6 -2 10 4 10 6 0 9 6 7 13 -1 6 -1 9 1 4
3 -4 10 -4 16 -1 8 5 8 2 0 -7 -16 -16 -17 -29 -1 -29 6 0 9 3 5 6 -8 8 18 34
33 34 6 0 9 4 5 10 -3 5 -13 6 -22 3 -15 -6 -16 -5 -3 9 8 9 17 13 20 9 3 -4
12 -10 21 -13 13 -5 16 0 14 23 -1 16 1 26 6 23 5 -3 7 -9 5 -13 -3 -4 -1 -13
3 -20 5 -7 8 43 8 111 0 106 -3 125 -19 141 -23 21 -23 9 -1 -23 13 -20 14
-22 2 -13 -9 7 -19 9 -23 5 -4 -4 -6 -1 -4 7 2 7 -3 16 -11 19 -8 2 -11 0 -8
-5 3 -5 0 -10 -8 -10 -11 0 -12 4 -4 14 6 7 9 19 6 27 -3 7 0 20 6 27 8 8 5 8
-7 -1 -18 -14 -19 -13 -12 5 6 16 5 17 -5 8 -9 -9 -9 -16 -1 -25 6 -8 7 -19 3
-27 -6 -10 -10 -9 -15 4 -3 10 -11 13 -18 9 -9 -5 -9 -3 1 9 11 13 11 20 1 32
-6 8 -8 20 -4 27 6 9 3 9 -10 -1 -12 -10 -14 -16 -5 -21 6 -4 10 -12 8 -16 -2
-5 -15 2 -29 15 -14 13 -19 20 -11 16 9 -5 12 -4 7 3 -12 19 -29 14 -23 -7 4
-17 2 -18 -14 -8 -12 7 -17 18 -13 29 3 10 3 18 0 18 -2 0 -7 -9 -11 -19z
m-41 -38 c4 -9 -1 -10 -18 -3 -15 5 -27 5 -35 -3 -8 -8 -11 -8 -11 0 0 23 56
28 64 6z m50 9 c3 -5 -1 -9 -9 -9 -8 0 -12 4 -9 9 3 4 7 8 9 8 2 0 6 -4 9 -8z
m61 -22 c3 -5 1 -10 -4 -10 -6 0 -11 5 -11 10 0 6 2 10 4 10 3 0 8 -4 11 -10z
m125 -101 c0 -4 -9 -7 -19 -6 -11 0 -18 4 -16 7 6 9 35 8 35 -1z m-622 -104
c-3 -3 -9 2 -12 12 -6 14 -5 15 5 6 7 -7 10 -15 7 -18z m17 -34 c3 -5 0 -13
-6 -17 -7 -4 -9 -3 -5 4 3 5 0 13 -6 15 -9 4 -10 6 -1 6 6 1 14 -3 18 -8z
m615 -5 c-7 -7 -13 -7 -20 0 -6 6 -3 10 10 10 13 0 16 -4 10 -10z m-17 -36 c3
-11 2 -20 -3 -20 -4 0 -10 11 -12 25 -6 29 7 25 15 -5z m-337 -94 c0 -13 -3
-22 -5 -20 -2 2 -10 -1 -16 -6 -9 -8 -14 -6 -19 6 -4 11 0 18 14 21 11 3 20 9
20 14 0 5 2 9 4 9 2 0 3 -11 2 -24z m-136 -3 c0 4 11 0 24 -8 23 -15 25 -15
41 7 10 13 15 16 12 7 -3 -9 0 -23 6 -30 10 -11 9 -11 -5 -1 -11 9 -18 10 -23
2 -4 -7 -12 -7 -26 0 -10 6 -19 8 -19 5 0 -4 -6 -3 -12 2 -7 4 -22 9 -32 10
-11 2 -22 6 -25 10 -3 3 4 3 17 0 13 -3 22 -1 22 6 0 7 5 5 10 -3 5 -8 10 -12
10 -7z"/>
<path d="M4861 3524 c0 -11 3 -14 6 -6 3 7 2 16 -1 19 -3 4 -6 -2 -5 -13z"/>
<path d="M4685 3519 c-3 -4 6 -6 21 -3 15 3 23 1 20 -5 -3 -5 0 -8 6 -7 7 1
14 6 16 11 3 12 -56 16 -63 4z"/>
<path d="M5013 3515 c0 -8 4 -12 9 -9 5 3 6 10 3 15 -9 13 -12 11 -12 -6z"/>
<path d="M4105 3480 c4 -6 11 -8 16 -5 14 9 11 15 -7 15 -8 0 -12 -5 -9 -10z"/>
<path d="M2236 3462 c-3 -5 1 -9 9 -9 8 0 12 4 9 9 -3 4 -7 8 -9 8 -2 0 -6 -4
-9 -8z"/>
<path d="M1836 3453 c-10 -10 -7 -25 4 -18 6 3 10 2 10 -3 0 -5 7 -9 15 -9 19
0 19 -1 -4 19 -11 9 -22 14 -25 11z"/>
<path d="M1433 3426 c1 -6 -7 -10 -18 -9 -11 1 -14 0 -7 -3 6 -3 10 -9 8 -13
-3 -4 4 -8 15 -8 10 -1 19 1 20 5 0 4 2 14 4 23 1 9 -3 16 -11 16 -7 0 -12 -5
-11 -11z"/>
<path d="M2235 3429 c-3 -4 2 -6 10 -5 21 3 28 13 10 13 -9 0 -18 -4 -20 -8z"/>
<path d="M4414 3390 c0 -13 4 -16 10 -10 7 7 7 13 0 20 -6 6 -10 3 -10 -10z"/>
<path d="M1200 3360 c0 -5 5 -10 11 -10 5 0 7 5 4 10 -3 6 -8 10 -11 10 -2 0
-4 -4 -4 -10z"/>
<path d="M1176 3294 c-5 -14 -4 -15 9 -4 17 14 19 20 6 20 -5 0 -12 -7 -15
-16z"/>
<path d="M4145 3290 c-3 -5 1 -10 9 -10 9 0 16 5 16 10 0 6 -4 10 -9 10 -6 0
-13 -4 -16 -10z"/>
<path d="M1084 3278 c6 -20 -10 -35 -17 -16 -2 7 -7 10 -11 7 -4 -3 0 -11 7
-18 20 -16 40 8 25 29 -8 12 -9 12 -4 -2z"/>
<path d="M4385 3260 c-3 -6 1 -7 9 -4 18 7 21 14 7 14 -6 0 -13 -4 -16 -10z"/>
<path d="M4420 3230 c-8 -5 -12 -12 -9 -15 4 -3 12 1 19 10 14 17 11 19 -10 5z"/>
<path d="M4145 3170 c-3 -5 1 -10 9 -10 9 0 16 5 16 10 0 6 -4 10 -9 10 -6 0
-13 -4 -16 -10z"/>
<path d="M5071 3124 c0 -11 3 -14 6 -6 3 7 2 16 -1 19 -3 4 -6 -2 -5 -13z"/>
<path d="M4916 3111 c-4 -7 -5 -15 -2 -18 9 -9 19 4 14 18 -4 11 -6 11 -12 0z"/>
<path d="M4790 3093 c0 -9 3 -13 7 -10 3 4 13 1 21 -6 13 -11 14 -9 1 11 -16
26 -29 29 -29 5z"/>
<path d="M4165 3074 c2 -4 0 -14 -5 -24 -6 -12 -5 -17 4 -17 13 0 15 32 3 42
-4 3 -5 2 -2 -1z"/>
<path d="M4615 3050 c-4 -6 -12 -7 -18 -4 -7 4 -8 3 -4 -1 13 -15 34 -14 34 1
0 17 -4 18 -12 4z"/>
<path d="M4135 2991 c3 -6 3 -17 -2 -23 -12 -20 -13 -41 -2 -57 9 -13 9 -13 5
3 -4 10 -1 25 5 32 6 8 8 14 3 15 -5 0 -1 4 8 7 16 7 16 8 -3 20 -12 8 -18 9
-14 3z"/>
<path d="M4153 2905 c0 -8 4 -12 9 -9 5 3 6 10 3 15 -9 13 -12 11 -12 -6z"/>
<path d="M696 2898 c3 -5 10 -6 15 -3 13 9 11 12 -6 12 -8 0 -12 -4 -9 -9z"/>
<path d="M535 2820 c-3 -5 -1 -10 4 -10 6 0 11 5 11 10 0 6 -2 10 -4 10 -3 0
-8 -4 -11 -10z"/>
<path d="M480 2800 c-9 -6 -10 -10 -3 -10 6 0 15 5 18 10 8 12 4 12 -15 0z"/>
<path d="M3992 2668 c-15 -15 -15 -28 -1 -28 5 0 8 4 5 9 -4 5 0 11 6 14 7 2
10 7 7 10 -3 4 -11 1 -17 -5z"/>
<path d="M3925 2590 c-3 -5 -3 -10 1 -10 5 0 -9 -16 -30 -35 -21 -19 -34 -35
-28 -35 6 0 14 5 17 10 4 6 11 8 16 4 5 -3 9 -2 8 3 -3 20 2 27 12 13 8 -12 9
-11 7 5 -2 15 2 19 17 18 11 -1 14 0 7 3 -6 3 -10 10 -7 14 3 5 1 11 -4 14 -5
4 -12 2 -16 -4z"/>
<path d="M4233 2478 c-2 -16 1 -18 10 -9 7 7 8 14 1 21 -6 6 -10 2 -11 -12z"/>
<path d="M4203 2475 c-16 -18 -16 -22 0 -22 7 0 14 9 14 19 2 21 2 21 -14 3z"/>
<path d="M4250 2469 c-17 -23 -49 -31 -67 -17 -8 7 -10 3 -6 -11 3 -14 0 -23
-11 -27 -9 -3 -16 -12 -16 -20 0 -15 -43 -29 -59 -19 -7 3 -8 0 -5 -9 3 -9 11
-13 17 -9 6 3 7 1 3 -5 -4 -7 -17 -12 -29 -12 -17 0 -19 -2 -7 -9 8 -6 18 -7
22 -5 4 3 5 -2 2 -10 -6 -15 -18 -20 -37 -17 -5 1 -6 -3 -2 -8 3 -6 12 -8 19
-5 8 3 17 0 22 -7 4 -8 3 -10 -4 -5 -7 4 -20 2 -29 -4 -17 -10 -17 -10 1 -8
10 2 21 -3 23 -10 3 -7 -1 -10 -10 -6 -8 3 -18 0 -23 -7 -4 -8 -3 -10 4 -5 7
4 12 2 12 -4 0 -6 5 -8 10 -5 6 3 10 1 10 -4 0 -6 -5 -11 -11 -11 -6 0 -3 -7
5 -16 11 -11 13 -21 7 -33 -8 -14 -5 -17 20 -15 16 1 26 -2 23 -7 -3 -5 5 -13
17 -17 l23 -9 -22 -5 c-14 -4 -20 -2 -15 4 3 7 1 8 -6 4 -6 -4 -10 -4 -9 1 3
8 -5 13 -22 13 -5 0 -10 -4 -10 -10 0 -5 6 -9 13 -7 6 1 11 -4 9 -11 -1 -8 2
-11 8 -7 5 3 10 0 10 -7 0 -9 3 -9 10 2 7 11 10 11 10 2 0 -10 5 -10 23 -1 19
10 20 10 11 -2 -13 -16 -15 -51 -2 -43 4 3 8 0 8 -7 0 -7 3 -9 7 -6 4 4 12 -6
19 -23 12 -28 15 -29 41 -19 15 5 24 7 20 3 -10 -11 12 -34 28 -28 7 3 15 1
19 -4 8 -13 -32 -8 -46 6 -7 7 -16 12 -21 12 -5 0 2 -9 17 -21 14 -11 23 -25
20 -31 -4 -6 2 -5 15 1 22 12 29 3 11 -15 -7 -7 -6 -11 4 -11 8 0 13 4 10 8
-2 4 0 10 6 14 5 3 10 -1 10 -9 0 -10 6 -13 15 -10 8 4 12 11 8 17 -3 6 -1 7
6 3 9 -6 9 -11 0 -22 -14 -17 2 -19 21 -1 12 10 12 9 0 -6 -12 -16 -11 -18 12
-13 19 3 25 0 24 -11 0 -9 7 -17 17 -18 9 -2 17 2 17 8 0 7 4 7 9 -2 5 -8 16
-11 25 -8 8 3 22 -1 31 -9 16 -16 20 -8 15 26 -1 8 2 12 6 7 4 -4 16 5 26 20
10 16 23 28 30 28 8 0 12 11 11 28 -2 22 0 25 11 14 8 -6 11 -14 7 -17 -9 -7
-8 -27 2 -34 4 -3 5 -3 2 0 -9 13 17 46 31 40 22 -8 17 2 -7 15 -17 9 -20 8
-14 -2 5 -7 4 -10 -3 -5 -25 15 24 64 58 57 10 -2 9 2 -4 12 -13 10 -15 16 -8
21 9 5 8 15 -2 35 -13 25 -13 30 2 46 9 10 12 15 6 12 -7 -4 -23 2 -37 13 -14
11 -29 19 -34 18 -4 -2 -8 1 -8 7 0 5 8 8 18 7 9 -2 17 1 17 7 0 6 -7 7 -17 4
-11 -4 -14 -3 -9 5 5 8 1 10 -11 5 -16 -6 -16 -5 -4 10 8 10 11 20 7 24 -3 3
-6 1 -6 -5 0 -7 -7 -12 -15 -12 -8 0 -15 5 -15 11 0 5 6 7 13 3 6 -4 8 -3 4 2
-4 4 -18 9 -30 9 -13 0 -23 7 -25 19 -3 11 0 16 7 11 6 -3 9 -11 6 -16 -10
-15 2 -10 16 8 8 10 9 14 2 10 -7 -4 -16 0 -22 10 -6 10 -11 13 -11 8 0 -6
-10 -11 -22 -12 -13 0 -17 1 -10 4 7 3 17 13 22 24 8 15 7 17 -5 13 -8 -3 -12
-10 -9 -15 3 -5 0 -9 -5 -9 -6 0 -11 5 -11 10 0 6 -5 10 -11 10 -5 0 -7 -5 -3
-12 4 -7 3 -8 -4 -4 -7 4 -17 17 -22 29 -10 20 -10 21 3 4 10 -12 17 -14 22
-8 3 6 1 11 -5 11 -6 0 -9 4 -6 9 4 5 -5 8 -19 6 -14 -1 -28 2 -31 7 -3 4 -9
6 -14 3 -5 -3 -7 9 -5 27 3 21 1 28 -4 20 -6 -11 -13 -7 -29 16 -12 16 -20 31
-19 33 1 2 -2 0 -8 -6 -5 -5 -19 -17 -30 -25 -19 -15 -19 -14 -2 10 22 32 22
48 0 21 -20 -24 -66 -20 -56 5 7 20 1 17 -17 -7z m131 -41 c10 -13 18 -27 19
-32 0 -5 -10 4 -22 19 -20 26 -22 27 -35 9 -7 -10 -13 -13 -13 -8 0 10 20 34
28 34 2 0 12 -10 23 -22z m-164 -4 c-3 -3 -12 -4 -19 -1 -8 3 -5 6 6 6 11 1
17 -2 13 -5z m154 -21 c13 -16 12 -17 -3 -4 -17 13 -22 21 -14 21 2 0 10 -8
17 -17z m-171 3 c0 -3 -4 -8 -10 -11 -5 -3 -10 -1 -10 4 0 6 5 11 10 11 6 0
10 -2 10 -4z m-77 -71 c-3 -9 -8 -14 -10 -11 -3 3 -2 9 2 15 9 16 15 13 8 -4z
m559 -210 c-3 -5 -7 -5 -9 2 -2 6 -12 10 -21 8 -9 -1 -11 0 -4 2 7 3 10 9 6
14 -3 5 -10 6 -16 3 -7 -4 -8 -2 -4 4 5 9 14 7 31 -5 12 -10 20 -22 17 -28z
m-2 -19 c0 -3 -4 -8 -10 -11 -5 -3 -10 -1 -10 4 0 6 5 11 10 11 6 0 10 -2 10
-4z m13 -42 c1 -4 -8 -9 -20 -10 -22 -4 -22 -3 -5 14 15 16 20 15 25 -4z
m-483 -6 c0 -4 -4 -8 -9 -8 -6 0 -12 4 -15 8 -3 5 1 9 9 9 8 0 15 -4 15 -9z
m31 -48 c6 0 7 -5 3 -11 -9 -15 -24 9 -22 36 1 17 1 17 5 -2 2 -13 9 -23 14
-23z m449 26 c0 -2 -7 -7 -16 -10 -8 -3 -12 -2 -9 4 6 10 25 14 25 6z m-385
-35 c3 -5 2 -12 -3 -15 -5 -3 -9 1 -9 9 0 17 3 19 12 6z m262 -93 c-3 -8 -6
-5 -6 6 -1 11 2 17 5 13 3 -3 4 -12 1 -19z m-26 -45 c13 -16 12 -17 -3 -4 -17
13 -22 21 -14 21 2 0 10 -8 17 -17z"/>
<path d="M4284 2479 c-8 -14 14 -19 25 -6 8 10 7 14 -5 14 -8 0 -17 -4 -20 -8z"/>
<path d="M3768 2428 c10 -13 10 -17 0 -20 -8 -3 -9 -6 -1 -11 18 -12 23 21 5
35 -15 11 -16 11 -4 -4z"/>
<path d="M3810 2426 c0 -2 7 -7 16 -10 8 -3 12 -2 9 4 -6 10 -25 14 -25 6z"/>
<path d="M4130 2418 c0 -11 12 -10 30 2 12 7 10 9 -8 7 -12 0 -22 -5 -22 -9z"/>
<path d="M4431 2406 c-8 -10 -8 -16 3 -25 10 -8 16 -9 21 -1 3 5 -1 10 -11 10
-13 0 -14 3 -4 15 7 8 10 15 7 15 -2 0 -10 -6 -16 -14z"/>
<path d="M4117 2395 c3 -8 9 -12 14 -9 12 7 11 11 -5 17 -10 4 -13 1 -9 -8z"/>
<path d="M130 2376 c0 -2 7 -7 16 -10 8 -3 12 -2 9 4 -6 10 -25 14 -25 6z"/>
<path d="M3701 2301 c-8 -5 -9 -11 -3 -15 5 -3 12 1 16 9 6 17 6 18 -13 6z"/>
<path d="M3735 2300 c-3 -5 -1 -10 4 -10 6 0 11 5 11 10 0 6 -2 10 -4 10 -3 0
-8 -4 -11 -10z"/>
<path d="M3697 2257 c-3 -7 3 -13 14 -13 13 0 15 3 7 13 -6 7 -12 13 -13 13
-2 0 -5 -6 -8 -13z"/>
<path d="M4060 2186 c0 -2 7 -7 16 -10 8 -3 12 -2 9 4 -6 10 -25 14 -25 6z"/>
<path d="M3740 2165 c0 -2 6 -8 13 -14 10 -8 14 -7 14 2 0 8 -6 14 -14 14 -7
0 -13 -1 -13 -2z"/>
<path d="M4055 2160 c3 -5 8 -10 11 -10 2 0 4 5 4 10 0 6 -5 10 -11 10 -5 0
-7 -4 -4 -10z"/>
<path d="M4705 2119 c-4 -6 -5 -12 -2 -15 2 -3 7 2 10 11 7 17 1 20 -8 4z"/>
<path d="M9 2053 c-12 -14 -12 -16 0 -9 10 7 12 4 7 -12 -8 -24 4 -34 24 -21
10 6 11 9 3 9 -7 0 -13 7 -13 15 0 8 5 15 11 15 5 0 7 -5 3 -12 -4 -7 -3 -8 4
-4 16 10 15 14 -7 25 -14 8 -22 7 -32 -6z"/>
<path d="M4170 2020 c0 -5 5 -10 11 -10 5 0 7 5 4 10 -3 6 -8 10 -11 10 -2 0
-4 -4 -4 -10z"/>
<path d="M4660 1996 c0 -2 7 -7 16 -10 8 -3 12 -2 9 4 -6 10 -25 14 -25 6z"/>
<path d="M33 1963 c0 -9 4 -10 14 -2 7 6 13 12 13 14 0 1 -6 2 -13 2 -8 0 -14
-6 -14 -14z"/>
<path d="M3707 1924 c-31 -30 -27 -47 7 -34 13 5 27 6 32 2 4 -4 4 -2 1 5 -4
6 -17 9 -30 5 -22 -5 -22 -5 -3 16 10 12 23 19 29 15 6 -3 7 -1 3 5 -10 16 -9
16 -39 -14z"/>
<path d="M4604 1913 c2 -3 -4 -13 -15 -24 -21 -21 -25 -39 -9 -39 6 0 9 3 9 8
-3 20 3 31 21 37 23 7 27 22 5 22 -8 0 -13 -2 -11 -4z"/>
<path d="M4410 1868 c0 -9 5 -20 10 -23 13 -8 13 5 0 25 -8 13 -10 13 -10 -2z"/>
<path d="M4450 1838 c0 -4 4 -8 9 -8 6 0 12 4 15 8 3 5 -1 9 -9 9 -8 0 -15 -4
-15 -9z"/>
<path d="M4500 1840 c-12 -7 -10 -9 7 -7 12 0 19 5 17 9 -6 10 -6 10 -24 -2z"/>
<path d="M3675 1690 c-4 -6 -16 -8 -28 -5 -16 5 -18 4 -8 -3 11 -8 11 -10 0
-15 -8 -3 -9 -6 -3 -6 7 -1 22 8 35 19 13 10 21 19 17 20 -4 0 -10 -5 -13 -10z"/>
<path d="M14 1662 c3 -5 0 -13 -6 -15 -9 -4 -10 -6 -1 -6 17 -1 25 16 12 25
-7 4 -9 3 -5 -4z"/>
<path d="M3655 1620 c3 -5 8 -10 11 -10 2 0 4 5 4 10 0 6 -5 10 -11 10 -5 0
-7 -4 -4 -10z"/>
<path d="M3581 1506 c-15 -17 -1 -28 19 -15 13 7 13 9 0 9 -13 0 -13 1 0 10 8
5 10 10 4 10 -6 0 -17 -6 -23 -14z"/>
<path d="M3566 1358 c3 -5 10 -6 15 -3 13 9 11 12 -6 12 -8 0 -12 -4 -9 -9z"/>
<path d="M190 1300 c0 -5 5 -10 11 -10 8 0 7 -6 -2 -17 -12 -16 -12 -17 2 -6
9 7 20 9 25 5 5 -4 0 3 -10 16 -21 24 -26 27 -26 12z"/>
<path d="M3528 1303 c7 -3 16 -2 19 1 4 3 -2 6 -13 5 -11 0 -14 -3 -6 -6z"/>
<path d="M3520 1285 c0 -5 5 -17 10 -25 5 -8 10 -10 10 -5 0 6 -5 17 -10 25
-5 8 -10 11 -10 5z"/>
<path d="M294 1182 c3 -5 1 -12 -6 -14 -8 -3 -9 -6 -1 -11 6 -4 13 0 17 8 3 8
0 17 -6 21 -6 4 -8 3 -4 -4z"/>
<path d="M3510 1156 c7 -7 13 -7 20 0 6 6 3 10 -10 10 -13 0 -16 -4 -10 -10z"/>
<path d="M300 1131 c0 -6 4 -13 10 -16 6 -3 7 1 4 9 -7 18 -14 21 -14 7z"/>
<path d="M340 1086 c0 -2 8 -10 18 -17 15 -13 16 -12 3 4 -13 16 -21 21 -21
13z"/>
<path d="M3445 1060 c-3 -5 -2 -10 4 -10 5 0 13 5 16 10 3 6 2 10 -4 10 -5 0
-13 -4 -16 -10z"/>
<path d="M490 981 c0 -6 5 -11 11 -11 8 0 7 -5 -1 -15 -11 -13 -10 -14 4 -9
20 8 20 18 1 34 -10 9 -15 9 -15 1z"/>
<path d="M597 907 c-3 -8 1 -14 8 -14 7 0 11 6 8 14 -3 7 -6 13 -8 13 -2 0 -5
-6 -8 -13z"/>
<path d="M781 811 c-8 -5 -9 -11 -3 -15 5 -3 12 1 16 9 6 17 6 18 -13 6z"/>
<path d="M3167 736 c-14 -11 -15 -15 -4 -19 8 -3 20 -1 28 4 11 7 11 9 1 9 -7
0 -10 5 -7 10 8 13 4 12 -18 -4z"/>
<path d="M3069 673 c-1 -5 -1 -12 0 -16 1 -4 -6 -7 -16 -5 -11 2 -18 -4 -19
-15 -2 -13 -1 -14 3 -1 4 14 6 13 19 -3 8 -10 13 -13 12 -6 -2 6 6 19 17 27
19 15 19 16 1 9 -13 -4 -17 -3 -12 5 4 7 5 12 2 12 -3 0 -7 -3 -7 -7z"/>
<path d="M2636 527 c-16 -12 -16 -14 -3 -14 9 0 18 6 21 14 3 7 4 13 3 13 -2
0 -11 -6 -21 -13z"/>
<path d="M2596 515 c-9 -26 -7 -32 5 -12 6 10 9 21 6 23 -2 3 -7 -2 -11 -11z"/>
<path d="M1130 500 c0 -5 5 -10 11 -10 5 0 7 5 4 10 -3 6 -8 10 -11 10 -2 0
-4 -4 -4 -10z"/>
<path d="M2610 491 c0 -6 4 -13 10 -16 6 -3 7 1 4 9 -7 18 -14 21 -14 7z"/>
<path d="M1350 444 c0 -8 5 -12 10 -9 6 4 8 11 5 16 -9 14 -15 11 -15 -7z"/>
<path d="M1880 450 c-9 -6 -10 -10 -3 -10 6 0 15 5 18 10 8 12 4 12 -15 0z"/>
<path d="M1780 421 c-11 -21 3 -40 15 -21 4 6 11 7 17 4 6 -4 6 2 -1 15 -14
26 -18 26 -31 2z"/>
<path d="M1330 420 c0 -5 5 -10 11 -10 5 0 7 5 4 10 -3 6 -8 10 -11 10 -2 0
-4 -4 -4 -10z"/>
<path d="M1379 417 c7 -7 14 -8 21 -1 6 6 2 10 -12 11 -16 2 -18 -1 -9 -10z"/>
<path d="M1878 423 c7 -3 16 -2 19 1 4 3 -2 6 -13 5 -11 0 -14 -3 -6 -6z"/>
</g>
</svg>
